<svg width="192" height="64" viewBox="0 0 192 64" fill="none" xmlns="http://www.w3.org/2000/svg">
<path d="M25.9823 38.4794L29.9953 34.4728C30.3298 34.1386 30.7855 33.6693 31.1905 33.2413L36.0488 28.1044C36.4537 27.6764 36.7465 27.3542 36.8171 27.26L37.6623 26.1298C37.7329 26.0355 37.5702 26.1831 37.2355 26.5173L33.2224 30.524C32.888 30.8577 32.4322 31.3275 32.0273 31.7555L27.169 36.8924C26.764 37.3203 26.4712 37.6426 26.4007 37.7368L25.5555 38.867C25.4853 38.9612 25.6479 38.8137 25.9823 38.4794Z" stroke="black" stroke-width="0.2" stroke-miterlimit="10"/>
<path d="M24.2952 40.8058L29.7891 34.9481C30.247 34.4597 30.8576 33.7881 31.3907 33.1863L37.7848 25.9677C38.3179 25.366 38.6925 24.9255 38.7676 24.8122L39.6682 23.4517C39.7434 23.3384 39.5074 23.5691 39.0495 24.0575L33.5556 29.9152C33.0977 30.4037 32.487 31.0752 31.954 31.677L25.5598 38.8956C25.0268 39.4974 24.6522 39.9378 24.577 40.0512L23.6764 41.4116C23.6013 41.5254 23.8373 41.2943 24.2952 40.8058Z" stroke="black" stroke-width="0.2" stroke-miterlimit="10"/>
<path d="M23.4196 42.134L29.7404 35.1714C30.2675 34.5909 30.9617 33.8012 31.5625 33.0998L38.7659 24.6835C39.3663 23.9817 39.7815 23.475 39.8552 23.3537L40.7378 21.8999C40.8116 21.7786 40.5322 22.0617 40.0051 22.6421L33.6843 29.6048C33.1573 30.1852 32.4631 30.975 31.8623 31.6763L24.6589 40.0927C24.0585 40.7944 23.6433 41.3011 23.5695 41.4224L22.6869 42.8762C22.6135 42.9971 22.8929 42.7144 23.4196 42.134Z" stroke="black" stroke-width="0.2" stroke-miterlimit="10"/>
<path d="M21.7702 45.0317L29.839 35.5162C30.5117 34.7229 31.376 33.6665 32.1066 32.7447L40.871 21.687C41.6015 20.7652 42.0873 20.1181 42.1455 19.9897L42.8411 18.4475C42.899 18.319 42.5205 18.7284 41.8478 19.5217L33.779 29.0372C33.1063 29.8305 32.242 30.8869 31.5114 31.8087L22.747 42.8664C22.0165 43.7882 21.5307 44.4353 21.4725 44.5637L20.7769 46.1059C20.719 46.2343 21.0975 45.8246 21.7702 45.0317Z" stroke="black" stroke-width="0.2" stroke-miterlimit="10"/>
<path d="M21.1014 46.5317L30.0355 35.594C30.7802 34.682 31.7231 33.4816 32.5091 32.4442L41.9374 19.9999C42.7233 18.9626 43.2327 18.2461 43.274 18.1204L43.7682 16.6137C43.8095 16.4879 43.3759 16.9724 42.6313 17.8844L33.6972 28.822C32.9525 29.734 32.0095 30.9345 31.2236 31.9718L21.7953 44.4161C21.0093 45.4535 20.4999 46.1699 20.4587 46.2957L19.9644 47.8023C19.9232 47.9277 20.3567 47.4432 21.1014 46.5317Z" stroke="black" stroke-width="0.2" stroke-miterlimit="10"/>
<path d="M20.4607 49.3395L30.8838 35.4041C31.7527 34.2423 32.8113 32.7512 33.6611 31.4917L43.8532 16.3856C44.7026 15.1265 45.2142 14.2905 45.1951 14.1927L44.964 13.022C44.9446 12.9243 44.3975 13.5798 43.5286 14.7416L33.1055 28.677C32.2367 29.8388 31.178 31.3299 30.3282 32.5894L20.1362 47.6955C19.2867 48.9546 18.7752 49.7906 18.7943 49.8884L19.0253 51.0591C19.0447 51.1564 19.5919 50.5008 20.4607 49.3395Z" stroke="black" stroke-width="0.2" stroke-miterlimit="10"/>
<path d="M20.7097 50.4642L31.6217 35.0514C32.5315 33.7665 33.6106 32.1417 34.453 30.7892L44.5568 14.5627C45.3992 13.2103 45.8765 12.3352 45.8091 12.2672L45.001 11.4538C44.9336 11.3858 44.3318 12.1356 43.422 13.4205L32.5096 28.8333C31.5998 30.1181 30.5207 31.743 29.6783 33.0954L19.5748 49.322C18.7324 50.6744 18.2551 51.5495 18.3225 51.6175L19.1307 52.4308C19.1981 52.4984 19.8002 51.7491 20.7097 50.4642Z" stroke="black" stroke-width="0.2" stroke-miterlimit="10"/>
<path d="M23.0976 51.4801L33.9892 33.5491C34.8972 32.0545 35.8846 30.2363 36.5792 28.7803L44.9136 11.3106C45.6082 9.8542 45.9049 8.98088 45.6918 9.01954L43.1343 9.48088C42.9212 9.51954 42.2305 10.464 41.3225 11.9586L30.4309 29.8896C29.5229 31.3842 28.5355 33.2025 27.8409 34.6584L19.5065 52.1281C18.8119 53.5845 18.5152 54.4578 18.7283 54.4192L21.2858 53.9578C21.4993 53.9196 22.1896 52.9747 23.0976 51.4801Z" stroke="black" stroke-width="0.2" stroke-miterlimit="10"/>
<path d="M25.6381 50.99L35.7512 32.2537C36.5943 30.692 37.4374 28.8431 37.9626 27.404L44.2662 10.1397C44.7918 8.70061 44.9198 7.88951 44.602 8.01217L40.7925 9.4846C40.475 9.60727 39.76 10.645 38.9169 12.2068L28.8038 30.9431C27.9607 32.5049 27.1176 34.3537 26.5924 35.7928L20.2888 53.0571C19.7632 54.4962 19.6352 55.3073 19.953 55.1847L23.7625 53.7122C24.0803 53.5896 24.795 52.5518 25.6381 50.99Z" stroke="black" stroke-width="0.2" stroke-miterlimit="10"/>
<path d="M34.7204 46.7011L40.8278 28.1092C41.3368 26.5595 41.5891 24.8826 41.4896 23.7102L40.2948 9.64583C40.1953 8.4734 39.7589 7.98363 39.1501 8.36096L31.8478 12.888C31.239 13.2654 30.5504 14.4525 30.0413 16.0022L23.934 34.5941C23.4249 36.1438 23.1727 37.8207 23.2722 38.9931L24.467 53.0575C24.5665 54.2299 25.0028 54.7197 25.6117 54.3423L32.9139 49.8153C33.5224 49.4379 34.211 48.2508 34.7204 46.7011Z" stroke="black" stroke-width="0.2" stroke-miterlimit="10"/>
<path d="M41.9237 42.2052L44.3271 25.0329C44.5274 23.6013 44.2787 22.1822 43.6748 21.3102L36.4297 10.8476C35.8258 9.97565 34.9584 9.78276 34.1541 10.3419L24.5056 17.0516C23.7013 17.6107 23.0826 18.8374 22.8822 20.2689L20.4788 37.4412C20.2785 38.8727 20.5272 40.2918 21.1311 41.1638L28.3762 51.6264C28.9801 52.4984 29.8475 52.6913 30.6518 52.1322L40.3003 45.4225C41.1046 44.8629 41.7233 43.6367 41.9237 42.2052Z" stroke="black" stroke-width="0.2" stroke-miterlimit="10"/>
<path d="M28.7376 28.9043L25.7783 25.5403C25.5317 25.2598 25.4641 25.1664 25.6011 25.2953L27.2449 26.8395C27.3819 26.968 27.7027 27.2994 28.0864 27.7085L32.6898 32.6166C33.0734 33.0257 33.4618 33.4505 33.7084 33.7311L36.6677 37.095C36.9144 37.3756 36.9819 37.469 36.8449 37.3401L35.2011 35.7959C35.0641 35.6674 34.7433 35.336 34.3596 34.9269L29.7562 30.0188C29.3726 29.6097 28.9842 29.1849 28.7376 28.9043Z" stroke="black" stroke-width="0.2" stroke-miterlimit="10"/>
<path d="M27.7456 27.695L23.9605 23.0897C23.6451 22.7058 23.5731 22.5934 23.7716 22.7947L26.1551 25.2087C26.3538 25.4099 26.7929 25.8942 27.3072 26.4793L33.4758 33.4986C33.9901 34.0837 34.5011 34.6808 34.8166 35.0646L38.6017 39.6699C38.9172 40.0538 38.9892 40.1662 38.7907 39.965L36.4072 37.551C36.2084 37.3497 35.7693 36.8654 35.2551 36.2803L29.0864 29.2611C28.5722 28.676 28.0611 28.0789 27.7456 27.695Z" stroke="black" stroke-width="0.2" stroke-miterlimit="10"/>
<path d="M27.1695 26.9533L22.9738 21.655C22.6241 21.2133 22.5534 21.0931 22.7887 21.3398L25.6103 24.2967C25.8456 24.5434 26.3509 25.119 26.9359 25.807L33.9532 34.0622C34.5382 34.7502 35.1139 35.4465 35.4639 35.8882L39.6596 41.1864C40.0093 41.6281 40.08 41.7484 39.8448 41.5017L37.0231 38.5447C36.7879 38.298 36.2825 37.7225 35.6976 37.0344L28.6802 28.7793C28.0953 28.0908 27.5195 27.3946 27.1695 26.9533Z" stroke="black" stroke-width="0.2" stroke-miterlimit="10"/>
<path d="M25.8862 25.1804L20.9775 18.4169C20.5682 17.8533 20.5127 17.7256 20.8317 18.0822L24.6574 22.3618C24.9763 22.7184 25.6212 23.5056 26.3494 24.4258L35.0839 35.469C35.8121 36.3896 36.5125 37.3041 36.9218 37.8677L41.8305 44.6312C42.2398 45.1948 42.2953 45.3225 41.9763 44.9659L38.1506 40.6862C37.8317 40.3296 37.1868 39.5424 36.4586 38.6222L27.7241 27.5791C26.9959 26.6584 26.2952 25.744 25.8862 25.1804Z" stroke="black" stroke-width="0.2" stroke-miterlimit="10"/>
<path d="M25.2017 24.1529L20.0533 16.6642C19.624 16.0399 19.5847 15.9155 19.9496 16.3374L24.3292 21.3997C24.6944 21.8216 25.4084 22.7261 26.2026 23.7723L35.7306 36.3237C36.5248 37.37 37.2784 38.3993 37.7077 39.0232L42.8561 46.5119C43.2854 47.1363 43.3247 47.2607 42.9598 46.8388L38.5802 41.7765C38.2149 41.3546 37.501 40.4501 36.7068 39.4038L27.1788 26.8524C26.3846 25.8062 25.631 24.7773 25.2017 24.1529Z" stroke="black" stroke-width="0.2" stroke-miterlimit="10"/>
<path d="M23.8566 21.8685L18.6879 13.1315C18.2571 12.403 18.2754 12.3063 18.7364 12.8778L24.265 19.7301C24.7259 20.3012 25.5591 21.4536 26.4506 22.7532L37.1476 38.3425C38.0394 39.642 38.8539 40.8912 39.2847 41.6197L44.4534 50.3567C44.8843 51.0852 44.8659 51.1819 44.4049 50.6104L38.8767 43.7581C38.4157 43.187 37.5825 42.0345 36.691 40.735L25.9941 25.1457C25.1023 23.8461 24.2875 22.597 23.8566 21.8685Z" stroke="black" stroke-width="0.2" stroke-miterlimit="10"/>
<path d="M23.2648 20.6546L18.4417 11.5077C18.0397 10.7454 18.1044 10.678 18.6113 11.3313L24.6928 19.1679C25.1997 19.8212 26.0719 21.0959 26.9812 22.5116L37.8858 39.4951C38.7947 40.9108 39.6025 42.2529 40.0045 43.0153L44.8277 52.1622C45.2297 52.9246 45.165 52.9919 44.658 52.3386L38.5766 44.5016C38.0696 43.8483 37.1975 42.5736 36.2882 41.1579L25.3836 24.1744C24.4746 22.7591 23.6668 21.417 23.2648 20.6546Z" stroke="black" stroke-width="0.2" stroke-miterlimit="10"/>
<path d="M22.5018 18.2796L19.5042 9.15001C19.2543 8.38887 19.4588 8.42732 20.0406 9.25003L27.0193 19.1229C27.6011 19.9461 28.4716 21.4287 29.3032 23.0129L39.2792 42.0154C40.1108 43.5997 40.7769 45.0443 41.0271 45.805L44.0247 54.9345C44.2745 55.6957 44.07 55.6572 43.4882 54.8345L36.5096 44.9616C35.9278 44.1385 35.0572 42.6559 34.2256 41.0716L24.2496 22.0692C23.418 20.4853 22.7516 19.0403 22.5018 18.2796Z" stroke="black" stroke-width="0.2" stroke-miterlimit="10"/>
<path d="M22.4799 17.2423L21.1858 8.76527C21.078 8.05867 21.3823 8.18057 21.9847 9.08468L29.2088 19.9324C29.8108 20.8365 30.6193 22.386 31.3295 23.9971L39.8477 43.3219C40.5579 44.933 41.0616 46.3607 41.1694 47.0673L42.4636 55.5444C42.5714 56.251 42.267 56.1291 41.6647 55.225L34.4406 44.3773C33.8385 43.4732 33.0301 41.9236 32.3199 40.3125L23.8017 20.9877C23.0918 19.377 22.5877 17.9489 22.4799 17.2423Z" stroke="black" stroke-width="0.2" stroke-miterlimit="10"/>
<path d="M23.6786 15.9408L28.0873 10.8215C28.4548 10.3946 29.0385 10.769 29.6187 11.8037L36.5767 24.2133C37.1569 25.248 37.6448 26.7852 37.8576 28.2467L40.4069 45.7761C40.6193 47.2372 40.5239 48.4004 40.1564 48.8273L35.7477 53.9466C35.3802 54.3734 34.7965 53.999 34.2164 52.9644L27.2583 40.5543C26.6781 39.5196 26.1902 37.9825 25.9774 36.5209L23.4281 18.9916C23.2154 17.5308 23.3108 16.3677 23.6786 15.9408Z" stroke="black" stroke-width="0.2" stroke-miterlimit="10"/>
<path d="M25.1799 15.9461L33.9457 13.9317C34.6765 13.7639 35.4478 14.3185 35.9691 15.3874L42.2227 28.207C42.7439 29.2756 42.936 30.6958 42.7268 31.9321L40.2145 46.7661C40.005 48.0028 39.4261 48.8677 38.6953 49.0359L29.9294 51.0503C29.1987 51.218 28.4273 50.6635 27.9061 49.5945L21.6525 36.775C21.1313 35.7064 20.9391 34.2862 21.1484 33.0499L23.6606 18.2159C23.8699 16.9791 24.4491 16.1139 25.1799 15.9461Z" stroke="black" stroke-width="0.2" stroke-miterlimit="10"/>
<path d="M73.3913 16.56V17.708H69.3873V28H68.1553V17.708H64.1473V16.56H73.3913ZM75.4662 23.216V28H74.2742V16.16H75.4662V21.8C75.9022 20.048 77.1822 18.94 78.8822 18.94C80.9142 18.94 82.1662 20.512 82.1662 23.016V28H80.9742V23.016C80.9742 21.092 80.0702 20.024 78.4142 20.024C76.6302 20.024 75.4662 21.272 75.4662 23.216ZM90.3387 25.168H91.5307C91.0347 27.108 89.5827 28.24 87.6107 28.24C85.0747 28.24 83.3747 26.368 83.3747 23.576C83.3747 20.8 85.0547 18.94 87.5627 18.94C89.9387 18.94 91.5707 20.668 91.5707 23.424C91.5707 23.604 91.5627 23.788 91.5427 24H84.5827C84.7147 25.936 85.8787 27.156 87.6347 27.156C88.9467 27.156 89.8627 26.472 90.3387 25.168ZM84.5987 22.96H90.3547C90.2027 21.1 89.1427 20.024 87.5667 20.024C85.9147 20.024 84.8027 21.148 84.5987 22.96ZM96.2447 22.28C96.2447 18.736 98.3887 16.32 101.537 16.32C104.685 16.32 106.833 18.736 106.833 22.28C106.833 25.824 104.685 28.24 101.537 28.24C98.3887 28.24 96.2447 25.824 96.2447 22.28ZM97.4767 22.28C97.4767 25.232 99.0447 27.092 101.537 27.092C104.025 27.092 105.601 25.232 105.601 22.28C105.601 19.328 104.025 17.468 101.537 17.468C99.0447 17.468 97.4767 19.328 97.4767 22.28ZM109.404 23.668V28H108.212V19.18H109.404V22.056C109.808 20.224 110.972 19.18 112.876 19.18H113.28V20.328H112.88C110.364 20.328 109.404 21.432 109.404 23.668ZM121.067 19.18H122.259V26.64C122.259 29.388 120.511 31.272 117.967 31.272C115.699 31.272 113.995 29.768 113.995 27.76H115.187C115.187 29.164 116.391 30.232 117.971 30.232C119.811 30.232 121.067 28.784 121.067 26.64V24.892C120.619 26.688 119.339 27.84 117.631 27.84C115.471 27.84 113.931 26 113.931 23.388C113.931 20.776 115.471 18.94 117.635 18.94C119.343 18.94 120.619 20.088 121.067 21.88V19.18ZM121.067 23.388C121.067 21.34 119.863 19.996 118.007 19.996C116.203 19.996 115.123 21.256 115.123 23.388C115.123 25.52 116.203 26.784 118.007 26.784C119.867 26.784 121.067 25.436 121.067 23.388ZM123.723 22.12C123.723 20.188 125.239 18.944 127.623 18.944C130.175 18.944 131.711 20.376 131.711 22.768V28H130.519V25.54C130.083 27.148 128.531 28.24 126.599 28.24C124.703 28.24 123.463 27.2 123.463 25.624C123.463 24.044 124.715 23.148 126.955 23.148H130.519V22.768C130.519 21.064 129.415 20.028 127.603 20.028C125.847 20.028 124.911 20.856 124.911 22.12H123.723ZM130.519 24.16H126.947C125.395 24.16 124.639 24.632 124.639 25.592C124.639 26.596 125.471 27.192 126.899 27.192C128.911 27.192 130.519 26.02 130.519 24.556V24.16ZM134.326 23.216V28H133.134V19.18H134.326V21.8C134.762 20.048 136.038 18.94 137.742 18.94C139.77 18.94 141.026 20.512 141.026 23.016V28H139.834V23.016C139.834 21.092 138.93 20.024 137.274 20.024C135.486 20.024 134.326 21.272 134.326 23.216ZM143.742 16.292V17.92H142.342V16.292H143.742ZM143.638 19.18V28H142.446V19.18H143.638ZM148.554 18.94C150.79 18.94 152.218 20.028 152.218 21.716H151.05C151.05 20.68 150.062 19.98 148.554 19.98C147.154 19.98 146.098 20.592 146.098 21.508C146.098 22.5 147.342 22.696 148.49 22.88L149.038 22.968C150.53 23.208 152.542 23.536 152.542 25.568C152.542 27.272 151.122 28.24 148.698 28.24C146.194 28.24 144.778 27.208 144.778 25.396H145.942C145.942 26.544 146.926 27.2 148.694 27.2C150.338 27.2 151.378 26.624 151.378 25.596C151.378 24.432 150.046 24.2 148.786 23.988L148.234 23.892C146.83 23.656 144.934 23.336 144.934 21.536C144.934 19.96 146.39 18.94 148.554 18.94ZM153.739 22.12C153.739 20.188 155.255 18.944 157.639 18.944C160.191 18.944 161.727 20.376 161.727 22.768V28H160.535V25.54C160.099 27.148 158.547 28.24 156.615 28.24C154.719 28.24 153.479 27.2 153.479 25.624C153.479 24.044 154.731 23.148 156.971 23.148H160.535V22.768C160.535 21.064 159.431 20.028 157.619 20.028C155.863 20.028 154.927 20.856 154.927 22.12H153.739ZM160.535 24.16H156.963C155.411 24.16 154.655 24.632 154.655 25.592C154.655 26.596 155.487 27.192 156.915 27.192C158.927 27.192 160.535 26.02 160.535 24.556V24.16ZM168.114 27.956C167.49 28.144 166.93 28.236 166.434 28.236C164.782 28.236 163.894 27.2 163.894 25.212V20.192H162.586V19.18H163.894V17.148H165.086V19.18H168.114V20.192H165.086V25.216C165.086 26.544 165.566 27.172 166.622 27.172C167.002 27.172 167.49 27.092 168.114 26.92V27.956ZM170.695 16.292V17.92H169.295V16.292H170.695ZM170.591 19.18V28H169.399V19.18H170.591ZM171.843 23.588C171.843 20.8 173.527 18.94 176.047 18.94C178.567 18.94 180.251 20.8 180.251 23.588C180.251 26.376 178.567 28.24 176.047 28.24C173.531 28.24 171.843 26.376 171.843 23.588ZM173.035 23.588C173.035 25.776 174.211 27.156 176.051 27.156C177.891 27.156 179.059 25.78 179.059 23.588C179.059 21.396 177.891 20.024 176.051 20.024C174.211 20.024 173.035 21.4 173.035 23.588ZM182.701 23.216V28H181.509V19.18H182.701V21.8C183.137 20.048 184.413 18.94 186.117 18.94C188.145 18.94 189.401 20.512 189.401 23.016V28H188.209V23.016C188.209 21.092 187.305 20.024 185.649 20.024C183.861 20.024 182.701 21.272 182.701 23.216ZM64.5153 39.588C64.5153 36.8 66.1993 34.94 68.7193 34.94C71.2393 34.94 72.9233 36.8 72.9233 39.588C72.9233 42.376 71.2393 44.24 68.7193 44.24C66.2033 44.24 64.5153 42.376 64.5153 39.588ZM65.7073 39.588C65.7073 41.776 66.8833 43.156 68.7233 43.156C70.5633 43.156 71.7313 41.78 71.7313 39.588C71.7313 37.396 70.5633 36.024 68.7233 36.024C66.8833 36.024 65.7073 37.4 65.7073 39.588ZM75.0064 44V36.192H73.5704V35.18H75.0064V34.768C75.0064 32.692 75.9664 31.64 77.8704 31.64C78.2944 31.64 78.7624 31.692 79.2744 31.796V32.836C78.7864 32.74 78.3744 32.688 78.0144 32.688C76.7304 32.688 76.1464 33.348 76.1464 34.768V35.18H79.2784V36.192H76.1984V44H75.0064ZM93.3511 32.56L86.4271 38.428L93.7911 44H91.8791L85.3431 39.012V44H84.1111V32.56H85.3431V37.908L91.5871 32.56H93.3511ZM95.8724 39.216V44H94.6804V35.18H95.8724V37.8C96.3084 36.048 97.5844 34.94 99.2884 34.94C101.316 34.94 102.572 36.512 102.572 39.016V44H101.38V39.016C101.38 37.092 100.476 36.024 98.8204 36.024C97.0324 36.024 95.8724 37.272 95.8724 39.216ZM103.781 39.588C103.781 36.8 105.465 34.94 107.985 34.94C110.505 34.94 112.189 36.8 112.189 39.588C112.189 42.376 110.505 44.24 107.985 44.24C105.469 44.24 103.781 42.376 103.781 39.588ZM104.973 39.588C104.973 41.776 106.149 43.156 107.989 43.156C109.829 43.156 110.997 41.78 110.997 39.588C110.997 37.396 109.829 36.024 107.989 36.024C106.149 36.024 104.973 37.4 104.973 39.588ZM118.946 35.18H120.362L122.878 43.12L125.402 35.18H126.614L123.774 44H122.122L119.638 36.34L117.134 44H115.482L112.662 35.18H113.902L116.402 43.124L118.946 35.18ZM128.841 32.16V44H127.649V32.16H128.841ZM137.057 41.168H138.249C137.753 43.108 136.301 44.24 134.329 44.24C131.793 44.24 130.093 42.368 130.093 39.576C130.093 36.8 131.773 34.94 134.281 34.94C136.657 34.94 138.289 36.668 138.289 39.424C138.289 39.604 138.281 39.788 138.261 40H131.301C131.433 41.936 132.597 43.156 134.353 43.156C135.665 43.156 136.581 42.472 137.057 41.168ZM131.317 38.96H137.073C136.921 37.1 135.861 36.024 134.285 36.024C132.633 36.024 131.521 37.148 131.317 38.96ZM146.468 32.16H147.66V44H146.468V41.16C146.02 43.04 144.748 44.24 143.06 44.24C140.868 44.24 139.328 42.32 139.328 39.588C139.328 36.856 140.868 34.94 143.06 34.94C144.748 34.94 146.02 36.14 146.468 38.012V32.16ZM146.468 39.588C146.468 37.416 145.268 35.996 143.436 35.996C141.6 35.996 140.52 37.332 140.52 39.588C140.52 41.848 141.604 43.184 143.436 43.184C145.268 43.184 146.468 41.76 146.468 39.588ZM156.098 35.18H157.29V42.64C157.29 45.388 155.542 47.272 152.998 47.272C150.73 47.272 149.026 45.768 149.026 43.76H150.218C150.218 45.164 151.422 46.232 153.002 46.232C154.842 46.232 156.098 44.784 156.098 42.64V40.892C155.65 42.688 154.37 43.84 152.662 43.84C150.502 43.84 148.962 42 148.962 39.388C148.962 36.776 150.502 34.94 152.666 34.94C154.374 34.94 155.65 36.088 156.098 37.88V35.18ZM156.098 39.388C156.098 37.34 154.894 35.996 153.038 35.996C151.234 35.996 150.154 37.256 150.154 39.388C150.154 41.52 151.234 42.784 153.038 42.784C154.898 42.784 156.098 41.436 156.098 39.388ZM165.511 41.168H166.703C166.207 43.108 164.755 44.24 162.783 44.24C160.247 44.24 158.547 42.368 158.547 39.576C158.547 36.8 160.227 34.94 162.735 34.94C165.111 34.94 166.743 36.668 166.743 39.424C166.743 39.604 166.735 39.788 166.715 40H159.755C159.887 41.936 161.051 43.156 162.807 43.156C164.119 43.156 165.035 42.472 165.511 41.168ZM159.771 38.96H165.527C165.375 37.1 164.315 36.024 162.739 36.024C161.087 36.024 159.975 37.148 159.771 38.96Z" fill="black"/>
</svg>
