<svg width="871" height="889" viewBox="0 0 871 889" fill="none" xmlns="http://www.w3.org/2000/svg">
<path d="M46.5302 498.03L109.019 708.54C122.739 754.77 166.25 786.03 215.51 785.06L308.21 783.22C355.39 782.28 397.09 751.95 411.85 707.82L527.76 361.35C546 306.84 604.23 275.21 660.54 289.21L693.66 297.45C774.37 317.52 848.64 245.26 828.83 165.93C817.63 121.07 778.4 88.6 731.34 85.23L521.66 70.2202C493.43 68.2002 465.35 76.9499 443.28 94.6499L83.1796 383.5C48.6296 411.21 34.1702 456.38 46.5302 498.03Z" stroke="black" stroke-width="1.1752" stroke-miterlimit="10"/>
<path d="M580.339 57.9602L367.719 4.18039C321.019 -7.62961 271.82 13.1403 247.29 55.0403L201.12 133.87C177.62 173.99 182.15 224.35 212.37 259.04L449.65 531.4C486.98 574.25 484.109 639.16 443.099 679.41L418.98 703.09C360.21 760.78 383.899 859.68 462.099 883.09C506.319 896.33 554.36 879.76 581.48 841.92L702.339 673.29C718.609 650.59 725.569 622.57 721.759 595.09L659.639 146.62C653.679 103.56 622.409 68.6002 580.339 57.9602Z" stroke="black" stroke-width="1.1752" stroke-miterlimit="10"/>
<path d="M682.62 728.76L838.231 577.24C872.411 543.96 879.94 492.12 856.67 450.35L812.88 371.75C790.59 331.75 745.09 310.12 699.79 318L344.13 379.88C288.18 389.61 234.02 354.42 220.64 299.64L212.77 267.41C193.6 188.89 96.6198 158.86 36.2698 212.76C2.14981 243.24 -8.38964 291.98 10.0804 333.88L92.3802 520.59C103.46 545.73 123.89 565.72 149.41 576.4L565.821 750.64C605.761 767.37 651.83 758.74 682.62 728.76Z" stroke="black" stroke-width="1.1752" stroke-miterlimit="10"/>
<path d="M54.9602 476L104.7 683.28C115.62 728.8 156.18 761.31 203.97 762.84L293.901 765.73C339.671 767.2 381.64 739.88 398.21 697.83L528.35 367.7C548.82 315.76 606.88 288.02 660.74 304.44L692.42 314.1C769.6 337.63 845.29 271.3 830.17 193.38C821.62 149.32 785.27 115.85 739.84 110.21L537.41 85.0899C510.16 81.7099 482.5 88.7801 460.2 104.83L96.3801 366.78C61.4501 391.92 45.1202 434.99 54.9602 476Z" stroke="black" stroke-width="1.1752" stroke-miterlimit="10"/>
<path d="M594.88 76.17L391.59 13.2998C346.94 -0.510153 298.19 17.1598 272.26 56.5498L223.47 130.66C198.64 168.38 200.44 217.44 227.94 252.61L443.889 528.67C477.859 572.1 471.74 634.9 429.93 671.86L405.34 693.6C345.42 746.58 363.29 843.68 437.87 870.32C480.04 885.38 527.45 871.74 555.68 836.41L681.47 678.98C698.41 657.78 706.589 630.97 704.309 604.13L667.16 166.12C663.61 124.08 635.1 88.6 594.88 76.17Z" stroke="black" stroke-width="1.1752" stroke-miterlimit="10"/>
<path d="M659.53 731.79L818.12 592.7C852.95 562.15 862.91 512.26 842.51 470.59L804.11 392.17C784.57 352.25 741.59 328.99 697.28 334.35L349.429 376.43C294.709 383.05 244.03 346.2 233.88 292.4L227.91 260.75C213.36 183.64 120.919 149.64 59.6794 198.86C25.0494 226.69 12.33 273.43 28.07 314.99L98.2302 500.19C107.68 525.13 126.44 545.54 150.63 557.18L545.21 747.13C583.06 765.36 628.15 759.31 659.53 731.79Z" stroke="black" stroke-width="1.1752" stroke-miterlimit="10"/>
<path d="M64.2502 455.06L101.79 658.56C110.04 703.25 147.671 736.82 193.901 740.71L280.901 748.04C325.181 751.77 367.251 727.4 385.481 687.46L528.56 373.89C551.07 324.56 608.76 300.58 660.1 319.22L690.3 330.18C763.88 356.89 840.64 296.38 830 220.06C823.98 176.9 790.47 142.61 746.74 134.86L551.861 100.3C525.621 95.6497 498.45 101.11 476.02 115.55L110 351.24C74.8602 373.86 56.8202 414.8 64.2502 455.06Z" stroke="black" stroke-width="1.1752" stroke-miterlimit="10"/>
<path d="M608.04 94.5498L414.269 23.3501C371.709 7.71013 323.56 22.39 296.41 59.2701L245.32 128.68C219.32 164.01 218.539 211.67 243.389 247.16L438.48 525.74C469.17 569.57 460.01 630.15 417.59 663.89L392.639 683.74C331.849 732.09 344.18 827.15 415.09 856.74C455.18 873.47 501.83 862.63 531 829.79L661 683.47C678.5 663.77 687.81 638.18 686.98 612.04L673.49 185.43C672.19 144.47 646.38 108.64 608.04 94.5498Z" stroke="black" stroke-width="1.1752" stroke-miterlimit="10"/>
<path d="M636.99 733.57L797.82 606.68C833.14 578.81 845.36 530.94 827.73 489.5L794.549 411.52C777.66 371.83 737.21 347.11 693.99 350.07L354.73 373.35C301.36 377.01 254.14 338.72 247.07 286.04L242.91 255.05C232.78 179.55 144.939 141.91 83.0593 186.56C48.0693 211.8 33.3397 256.48 46.4597 297.58L104.929 480.71C112.799 505.37 129.94 526.11 152.78 538.62L525.4 742.69C561.17 762.26 605.17 758.67 636.99 733.57Z" stroke="black" stroke-width="1.1752" stroke-miterlimit="10"/>
<path d="M74.3395 435.23L100.269 634.46C105.959 678.22 140.709 712.66 185.309 718.77L269.24 730.26C311.96 736.11 353.99 714.59 373.7 676.78L528.48 379.92C552.83 333.22 609.969 312.87 658.769 333.53L687.48 345.68C757.42 375.29 834.919 320.48 828.519 245.93C824.899 203.78 794.19 168.84 752.21 159.12L565.13 115.79C539.94 109.96 513.329 113.89 490.849 126.76L124 336.85C88.7897 357.02 69.2095 395.81 74.3395 435.23Z" stroke="black" stroke-width="1.1752" stroke-miterlimit="10"/>
<path d="M619.85 113.04L435.731 34.23C395.291 16.92 347.87 28.7299 319.67 63.1299L266.59 127.86C239.57 160.81 236.37 206.99 258.63 242.65L433.37 522.62C460.86 566.66 448.871 624.96 406.031 655.53L380.83 673.52C319.43 717.34 326.501 810.14 393.691 842.41C431.691 860.66 477.45 852.49 507.41 822.12L640.91 686.78C658.88 668.56 669.22 644.21 669.76 618.82L678.611 204.46C679.451 164.68 656.28 128.63 619.85 113.04Z" stroke="black" stroke-width="1.1752" stroke-miterlimit="10"/>
<path d="M615.06 734.15L777.44 619.21C813.1 593.97 827.41 548.16 812.45 507.08L784.3 429.79C769.97 390.45 732.04 364.44 690.01 365.14L360.03 370.62C308.12 371.48 264.33 331.97 260.18 280.53L257.74 250.27C251.8 176.54 168.61 135.62 106.35 175.8C71.1397 198.52 54.57 241.1 65.17 281.61L112.42 462.13C118.78 486.44 134.33 507.41 155.81 520.69L506.43 737.36C540.1 758.16 582.93 756.89 615.06 734.15Z" stroke="black" stroke-width="1.1752" stroke-miterlimit="10"/>
<path d="M85.1296 416.5L100.009 611C103.279 653.72 135.18 688.87 178.09 697.04L258.84 712.41C299.94 720.24 341.77 701.49 362.82 665.82L528.07 385.75C554.07 341.69 610.489 324.84 656.719 347.33L683.91 360.56C750.16 392.79 828.079 343.55 825.719 270.94C824.379 229.88 796.42 194.46 756.23 182.91L577.16 131.46C553.05 124.53 527.06 127 504.61 138.36L138.309 323.6C103.159 341.39 82.1796 378.02 85.1296 416.5Z" stroke="black" stroke-width="1.1752" stroke-miterlimit="10"/>
<path d="M630.34 131.56L455.96 45.86C417.66 27.04 371.1 36.0999 342 68.0299L287.23 128.13C259.35 158.72 253.88 203.34 273.61 239.04L428.559 519.33C452.939 563.43 438.32 619.35 395.23 646.84L369.88 663.01C308.13 702.41 310.2 792.76 373.66 827.43C409.54 847.04 454.31 841.43 484.91 813.49L621.24 688.98C639.6 672.22 650.86 649.13 652.69 624.53L682.57 223.17C685.44 184.64 664.84 148.52 630.34 131.56Z" stroke="black" stroke-width="1.1752" stroke-miterlimit="10"/>
<path d="M593.78 733.62L757.05 630.35C792.91 607.67 809.13 563.97 796.74 523.38L773.44 447.01C761.58 408.14 726.15 381.01 685.38 379.57L365.32 368.26C314.97 366.48 274.56 325.96 273.19 275.87L272.38 246.4C270.41 174.61 191.9 130.74 129.5 166.56C94.2099 186.81 75.96 227.27 84.16 267.09L120.67 444.52C125.59 468.41 139.57 489.54 159.71 503.49L488.36 731.26C519.9 753.12 561.48 754.05 593.78 733.62Z" stroke="black" stroke-width="1.1752" stroke-miterlimit="10"/>
<path d="M96.5496 398.89L100.98 588.24C101.95 629.83 131.06 665.52 172.23 675.6L249.69 694.58C289.12 704.24 330.619 688.17 352.849 654.64L527.389 391.39C554.849 349.97 610.39 336.48 654.04 360.62L679.71 374.82C742.26 409.42 820.3 365.59 821.74 295.06C822.55 255.18 797.27 219.42 758.92 206.2L588.019 147.29C565.009 139.36 539.7 140.44 517.36 150.32L152.86 311.49C117.88 326.96 95.6696 361.43 96.5496 398.89Z" stroke="black" stroke-width="1.1752" stroke-miterlimit="10"/>
<path d="M639.559 150.06L474.969 58.1702C438.819 37.9902 393.239 44.4304 363.389 73.9304L307.23 129.44C278.65 157.7 271.039 200.69 288.339 236.3L424.099 515.9C445.459 559.89 428.42 613.38 385.25 637.87L359.86 652.27C297.99 687.37 295.36 775.08 355.07 811.9C388.84 832.72 432.509 829.53 463.589 803.98L602.099 690.11C620.749 674.78 632.849 652.96 635.889 629.2L685.469 241.5C690.229 204.3 672.119 168.24 639.559 150.06Z" stroke="black" stroke-width="1.1752" stroke-miterlimit="10"/>
<path d="M573.18 732.03L736.72 640.12C772.64 619.93 790.6 578.37 780.68 538.4L762.02 463.17C752.52 424.88 719.59 396.78 680.15 393.33L370.56 366.23C321.86 361.97 284.78 320.64 286.03 272L286.76 243.39C288.54 173.68 214.71 127.18 152.4 158.76C117.16 176.62 97.4001 214.93 103.29 253.96L129.55 427.86C133.09 451.27 145.55 472.46 164.35 487.01L471.14 724.44C500.59 747.21 540.83 750.21 573.18 732.03Z" stroke="black" stroke-width="1.1752" stroke-miterlimit="10"/>
<path d="M108.519 382.38L103.08 566.22C101.89 606.6 128.26 642.67 167.63 654.53L241.719 676.84C279.429 688.19 320.48 674.7 343.75 643.31L526.429 396.83C555.169 358.05 609.69 347.77 650.74 373.37L674.889 388.43C733.729 425.13 811.61 386.57 816.63 318.25C819.47 279.62 796.81 243.67 760.32 228.91L597.73 163.17C575.84 154.32 551.249 154.1 529.099 162.55L167.58 300.47C132.89 313.71 109.599 346.01 108.519 382.38Z" stroke="black" stroke-width="1.1752" stroke-miterlimit="10"/>
<path d="M647.54 168.45L492.759 71.0497C458.769 49.6597 414.26 53.5998 383.82 80.7098L326.54 131.71C297.39 157.67 287.81 198.98 302.74 234.38L419.929 512.35C438.369 556.08 419.099 607.09 376.009 628.66L350.66 641.35C288.9 672.27 281.84 757.19 337.82 795.9C369.47 817.79 411.96 816.9 443.4 793.69L583.49 690.25C602.35 676.32 615.2 655.78 619.37 632.89L687.339 259.44C693.849 223.61 678.16 187.72 647.54 168.45Z" stroke="black" stroke-width="1.1752" stroke-miterlimit="10"/>
<path d="M553.3 729.44L716.51 648.55C752.35 630.78 771.9 591.39 764.34 552.12L750.121 478.23C742.881 440.62 712.411 411.72 674.371 406.38L375.741 364.5C328.761 357.91 294.961 315.97 298.661 268.86L300.84 241.15C306.15 173.64 236.991 124.83 174.981 152.32C139.911 167.87 118.79 204.02 122.5 242.16L139.01 412.11C141.23 434.99 152.231 456.17 169.701 471.23L454.8 716.92C482.17 740.51 521.01 745.45 553.3 729.44Z" stroke="black" stroke-width="1.1752" stroke-miterlimit="10"/>
<path d="M120.97 366.98L106.25 544.98C103.02 584.07 126.72 620.39 164.27 633.86L234.93 659.22C270.89 672.13 311.371 661.12 335.531 631.84L525.231 402.03C555.071 365.88 608.441 358.65 646.911 385.55L669.541 401.37C724.671 439.92 802.13 406.45 810.51 340.45C815.25 303.13 795.131 267.13 760.531 250.98L606.35 179.04C585.59 169.35 561.781 167.9 539.871 174.98L182.43 290.51C148.12 301.62 123.89 331.77 120.97 366.98Z" stroke="black" stroke-width="1.1752" stroke-miterlimit="10"/>
<path d="M654.331 186.69L509.34 84.4399C477.5 61.9799 434.16 63.5698 403.27 88.3198L345.14 134.89C315.55 158.59 304.15 198.17 316.8 233.25L416.081 508.71C431.701 552.04 410.411 600.54 367.541 619.29L342.321 630.32C280.881 657.19 269.67 739.18 321.93 779.54C351.48 802.36 392.701 803.64 424.361 782.72L565.43 689.47C584.42 676.92 597.931 657.64 603.151 635.66L688.22 276.95C696.38 242.51 683.021 206.92 654.331 186.69Z" stroke="black" stroke-width="1.1752" stroke-miterlimit="10"/>
<path d="M534.17 725.94L696.49 655.73C732.14 640.31 753.099 603.09 747.799 564.63L737.82 492.26C732.74 455.43 704.69 425.86 668.11 418.77L380.86 363.11C335.67 354.35 305.07 311.98 311.08 266.48L314.62 239.72C323.24 174.52 258.72 123.7 197.21 147.24C162.43 160.55 140.1 194.54 141.73 231.71L149 397.35C149.98 419.65 159.54 440.74 175.7 456.22L439.36 708.84C464.67 733.09 502.06 739.83 534.17 725.94Z" stroke="black" stroke-width="1.1752" stroke-miterlimit="10"/>
<path d="M133.83 352.67L110.41 524.53C105.27 562.28 126.37 598.68 162.07 613.65L229.24 641.81C263.43 656.14 303.219 647.5 328.139 620.33L523.79 407.04C554.57 373.49 606.66 369.16 642.55 397.19L663.67 413.67C715.12 453.83 791.9 425.28 803.41 361.7C809.92 325.75 792.28 289.82 759.58 272.43L613.86 194.9C594.24 184.46 571.24 181.85 549.65 187.61L197.32 281.63C163.5 290.66 138.46 318.67 133.83 352.67Z" stroke="black" stroke-width="1.1752" stroke-miterlimit="10"/>
<path d="M659.97 204.72L524.72 98.2597C495.01 74.8797 452.941 74.2298 421.731 96.6698L363 138.9C333.11 160.39 320.02 198.19 330.47 232.85L412.531 504.96C425.441 547.77 402.32 593.72 359.81 609.74L334.8 619.16C273.88 642.12 258.8 721.06 307.37 762.83C334.83 786.45 374.71 789.77 406.47 771.07L547.981 687.76C567.031 676.54 581.12 658.53 587.3 637.48L688.18 293.92C697.85 260.97 686.73 225.78 659.97 204.72Z" stroke="black" stroke-width="1.1752" stroke-miterlimit="10"/>
<path d="M515.809 721.58L676.719 661.67C712.059 648.51 734.29 613.48 731.13 575.92L725.179 505.24C722.149 469.27 696.49 439.18 661.4 430.47L385.889 362.03C342.549 351.26 315.07 308.63 323.23 264.82L328.03 239.05C339.73 176.26 279.82 123.73 219 143.45C184.61 154.6 161.219 186.44 160.889 222.57L159.42 383.55C159.22 405.22 167.409 426.16 182.269 441.98L424.799 700.23C448.089 725.01 483.969 733.43 515.809 721.58Z" stroke="black" stroke-width="1.1752" stroke-miterlimit="10"/>
<path d="M147.03 339.45L115.5 504.92C108.58 541.26 127.16 577.63 160.98 593.94L224.629 624.63C257.019 640.25 296.03 633.87 321.57 608.79L522.139 411.82C553.689 380.83 604.39 379.27 637.74 408.25L657.36 425.3C705.15 466.84 781.03 443.02 795.45 381.95C803.6 347.42 788.359 311.69 757.559 293.17L620.33 210.65C601.85 199.54 579.699 195.85 558.469 200.35L212.2 273.76C178.97 280.8 153.27 306.71 147.03 339.45Z" stroke="black" stroke-width="1.1752" stroke-miterlimit="10"/>
<path d="M664.51 222.49L538.91 112.44C511.32 88.2702 470.58 85.5202 439.18 105.71L380.1 143.7C350.03 163.04 335.4 199.03 343.75 233.17L409.28 501.17C419.59 543.33 394.82 586.73 352.8 600.12L328.08 608C267.86 627.19 249.2 702.98 294.12 745.94C319.52 770.23 358 775.46 389.73 758.93L531.15 685.27C550.19 675.35 564.77 658.6 571.84 638.49L687.26 310.43C698.33 278.94 689.36 244.26 664.51 222.49Z" stroke="black" stroke-width="1.1752" stroke-miterlimit="10"/>
<path d="M498.24 716.42L657.26 666.44C692.19 655.46 715.53 622.61 714.39 586.03L712.26 517.19C711.17 482.15 687.85 451.69 654.29 441.47L390.81 361.22C349.36 348.59 324.92 305.87 335.08 263.79L341.06 239.04C355.63 178.74 300.27 124.79 240.32 140.85C206.42 149.93 182.121 179.63 179.941 214.64L170.24 370.67C168.93 391.68 175.79 412.39 189.38 428.48L411.14 691.12C432.43 716.33 466.78 726.31 498.24 716.42Z" stroke="black" stroke-width="1.1752" stroke-miterlimit="10"/>
<path d="M160.5 327.29L121.45 486.16C112.87 521.05 129.01 557.25 160.95 574.77L221.05 607.73C251.64 624.51 289.76 620.29 315.81 597.25L520.3 416.36C552.47 387.9 601.68 388.94 632.51 418.73L650.64 436.25C694.82 478.94 769.581 459.66 786.691 401.17C796.371 368.1 783.431 332.68 754.531 313.17L625.781 226.23C608.451 214.52 587.16 209.83 566.37 213.12L227.031 266.86C194.461 272.03 168.22 295.85 160.5 327.29Z" stroke="black" stroke-width="1.1752" stroke-miterlimit="10"/>
<path d="M668 239.95L551.93 126.91C526.44 102.08 487.1 97.3599 455.63 115.36L396.42 149.22C366.28 166.46 350.26 200.62 356.6 234.15L406.33 497.33C414.15 538.73 387.92 579.57 346.51 590.43L322.15 596.82C262.8 612.39 240.82 684.95 282.14 728.87C305.51 753.7 342.53 760.71 374.13 746.28L514.96 681.98C533.92 673.32 548.91 657.81 556.8 638.67L685.51 326.36C697.87 296.39 690.96 262.31 668 239.95Z" stroke="black" stroke-width="1.1752" stroke-miterlimit="10"/>
<path d="M481.481 710.53L638.151 670.07C672.561 661.18 696.871 630.51 697.651 594.97L699.12 528.11C699.87 494.08 678.83 463.36 646.83 451.76L395.62 360.66C356.1 346.33 334.61 303.66 346.62 263.38L353.691 239.68C370.911 181.94 320.031 126.83 261.111 139.38C227.791 146.48 202.72 174.05 198.81 207.89L181.39 358.71C179.04 379.02 184.63 399.44 196.97 415.74L398.38 681.6C417.71 707.13 450.481 718.54 481.481 710.53Z" stroke="black" stroke-width="1.1752" stroke-miterlimit="10"/>
</svg>
