<svg width="845" height="863" viewBox="0 0 845 863" fill="none" xmlns="http://www.w3.org/2000/svg">
<path d="M526.639 445.16L448.61 444.65C413.66 444.42 399.98 489.681 423.98 526.12L477.57 607.47C501.57 643.9 545.26 644.19 556.2 607.98L580.639 527.14C591.589 490.93 561.589 445.38 526.639 445.16Z" stroke="black" stroke-width="1.1752" stroke-miterlimit="10"/>
<path d="M509.37 421.04L432.941 437.77C398.711 445.26 394.73 495.39 425.79 527.99L495.12 600.79C526.17 633.39 568.96 624.03 572.14 583.93L579.24 494.4C582.42 454.3 543.6 413.55 509.37 421.04Z" stroke="black" stroke-width="1.1752" stroke-miterlimit="10"/>
<path d="M487.46 399.77L416.18 434.09C384.26 449.46 390.791 502.49 427.941 529.55L510.89 589.97C548.04 617.03 587.95 597.82 582.72 555.39L571.05 460.66C565.83 418.22 519.39 384.4 487.46 399.77Z" stroke="black" stroke-width="1.1752" stroke-miterlimit="10"/>
<path d="M461.61 382.471L399.02 433.941C370.99 456.991 388.41 510.741 430.37 530.681L524.07 575.201C566.04 595.141 601.08 566.321 587.14 523.331L556.03 427.341C542.1 384.341 489.64 359.421 461.61 382.471Z" stroke="black" stroke-width="1.1752" stroke-miterlimit="10"/>
<path d="M432.72 370.2L382.201 437.61C359.571 467.8 387.781 519.87 432.981 531.34L533.89 556.94C579.09 568.41 607.37 530.67 584.8 489.01L534.41 396C511.85 354.34 455.35 340.01 432.72 370.2Z" stroke="black" stroke-width="1.1752" stroke-miterlimit="10"/>
<path d="M401.92 363.811L366.519 445.131C350.659 481.551 389.08 529.491 435.68 531.431L539.71 535.751C586.3 537.691 606.12 492.161 575.38 453.811L506.75 368.171C476.02 329.811 417.78 327.391 401.92 363.811Z" stroke="black" stroke-width="1.1752" stroke-miterlimit="10"/>
<path d="M370.46 363.98L352.74 456.43C344.8 497.83 392.35 539.23 438.33 530.93L540.981 512.42C586.961 504.13 596.88 452.37 558.84 419.26L473.91 345.33C435.87 312.22 378.4 322.58 370.46 363.98Z" stroke="black" stroke-width="1.1752" stroke-miterlimit="10"/>
<path d="M339.731 371.12L341.62 471.24C342.46 516.08 397.58 548.631 440.83 529.84L537.39 487.871C580.64 469.071 579.58 413.02 535.49 386.98L437.04 328.83C392.94 302.78 338.881 326.28 339.731 371.12Z" stroke="black" stroke-width="1.1752" stroke-miterlimit="10"/>
<path d="M311.15 385.34L333.809 489.1C343.959 535.57 404.64 557.26 443.03 528.13L528.76 463.1C567.15 433.98 554.47 375.88 505.92 358.54L397.53 319.81C348.99 302.46 301 338.87 311.15 385.34Z" stroke="black" stroke-width="1.1752" stroke-miterlimit="10"/>
<path d="M286.151 406.46L329.89 509.42C349.48 555.53 413.34 564.68 444.84 525.88L515.17 439.25C546.67 400.45 522.18 342.81 471.09 335.49L357.02 319.16C305.93 311.85 266.561 360.35 286.151 406.46Z" stroke="black" stroke-width="1.1752" stroke-miterlimit="10"/>
<path d="M266.08 433.97L330.269 531.44C359.019 575.09 423.39 570.48 446.13 523.14L496.91 417.44C519.66 370.1 483.72 315.53 432.22 319.22L317.25 327.46C265.76 331.14 237.33 390.32 266.08 433.97Z" stroke="black" stroke-width="1.1752" stroke-miterlimit="10"/>
<path d="M252.18 467.031L335.231 554.251C372.431 593.321 434.431 574.281 446.831 519.991L474.531 398.771C486.931 344.481 440.44 295.651 390.84 310.871L280.09 344.871C230.49 360.101 214.98 427.971 252.18 467.031Z" stroke="black" stroke-width="1.1752" stroke-miterlimit="10"/>
<path d="M245.45 504.51L344.82 576.9C389.33 609.32 446.021 575.8 446.861 516.56L448.75 384.29C449.6 325.05 393.961 284.52 348.611 311.34L247.35 371.22C202 398.04 200.95 472.09 245.45 504.51Z" stroke="black" stroke-width="1.1752" stroke-miterlimit="10"/>
<path d="M246.67 545.001L358.92 598.351C409.2 622.251 457.68 574.831 446.19 512.991L420.54 374.931C409.05 313.101 346.21 283.231 307.42 321.171L220.82 405.871C182.03 443.811 196.39 521.101 246.67 545.001Z" stroke="black" stroke-width="1.1752" stroke-miterlimit="10"/>
<path d="M256.27 586.861L377.16 617.551C431.3 631.291 468.87 571.231 444.77 509.431L390.97 371.451C366.88 309.651 299.2 292.471 269.14 340.521L202.04 447.811C172.01 495.861 202.12 573.111 256.27 586.861Z" stroke="black" stroke-width="1.1752" stroke-miterlimit="10"/>
<path d="M274.37 628.291L399 633.491C454.82 635.821 479.07 565.001 442.66 506.031L361.35 374.351C324.93 315.371 255.16 312.461 235.76 369.111L192.441 495.601C173.031 552.251 218.55 625.971 274.37 628.291Z" stroke="black" stroke-width="1.1752" stroke-miterlimit="10"/>
<path d="M300.68 667.41L423.67 645.25C478.75 635.32 487.75 556.27 439.87 502.96L332.96 383.92C285.08 330.6 216.22 343.01 209.02 406.25L192.941 547.45C185.751 610.69 245.6 677.33 300.68 667.41Z" stroke="black" stroke-width="1.1752" stroke-miterlimit="10"/>
<path d="M334.56 702.29L450.25 652.03C502.07 629.52 494.43 545.27 436.51 500.38L307.18 400.15C249.26 355.26 184.49 383.4 190.6 450.8L204.231 601.29C210.341 668.69 282.74 724.8 334.56 702.29Z" stroke="black" stroke-width="1.1752" stroke-miterlimit="10"/>
<path d="M374.95 731.101L477.66 653.21C523.66 618.32 498.681 532.34 432.691 498.44L285.35 422.751C219.36 388.851 161.86 432.461 181.84 501.241L226.46 654.821C246.46 723.611 328.94 765.981 374.95 731.101Z" stroke="black" stroke-width="1.1752" stroke-miterlimit="10"/>
<path d="M420.441 752.14L504.72 648.37C542.46 601.89 500.15 517.95 428.56 497.27L268.7 451.1C197.1 430.42 149.92 488.52 183.77 555.67L259.35 705.62C293.2 772.76 382.691 798.61 420.441 752.14Z" stroke="black" stroke-width="1.1752" stroke-miterlimit="10"/>
<path d="M469.31 763.971L530.17 637.351C557.43 580.641 498.59 502.651 424.26 496.961L258.3 484.271C183.97 478.591 149.9 549.471 196.97 611.871L302.07 751.181C349.14 813.581 442.06 820.681 469.31 763.971Z" stroke="black" stroke-width="1.1752" stroke-miterlimit="10"/>
<path d="M519.58 765.471L552.78 620.251C567.65 555.211 493.88 487.061 419.99 497.591L255.019 521.091C181.129 531.621 162.539 612.92 221.559 667.43L353.33 789.15C412.35 843.67 504.71 830.511 519.58 765.471Z" stroke="black" stroke-width="1.1752" stroke-miterlimit="10"/>
<path d="M569.06 755.92L571.34 597.46C572.36 526.49 486.04 471.9 415.95 499.19L259.47 560.14C189.39 587.44 188.11 676.15 257.17 719.82L411.37 817.33C480.43 861.01 568.04 826.89 569.06 755.92Z" stroke="black" stroke-width="1.1752" stroke-miterlimit="10"/>
<path d="M615.47 735.03L584.76 569.63C571.01 495.55 475.21 457.84 412.34 501.74L271.951 599.77C209.071 643.67 226.271 736.27 302.901 766.44L474 833.81C550.63 863.99 629.23 809.11 615.47 735.03Z" stroke="black" stroke-width="1.1752" stroke-miterlimit="10"/>
<path d="M656.53 703.03L592.099 537.72C563.239 463.68 461.71 445.62 409.33 505.22L292.389 638.28C240.009 697.87 276.079 790.421 357.309 804.871L538.679 837.121C619.909 851.571 685.38 777.07 656.53 703.03Z" stroke="black" stroke-width="1.1752" stroke-miterlimit="10"/>
<path d="M690.03 660.661L592.64 502.891C549.02 432.231 445.95 435.901 407.11 509.491L320.39 673.821C281.55 747.421 336.07 835.751 418.53 832.811L602.64 826.261C685.1 823.311 733.65 731.321 690.03 660.661Z" stroke="black" stroke-width="1.1752" stroke-miterlimit="10"/>
<path d="M713.99 609.151L585.92 466.521C528.56 402.641 428.5 429.251 405.81 514.431L355.15 704.611C332.46 789.781 404.16 869.641 484.2 848.341L662.93 800.801C742.99 779.501 771.35 673.031 713.99 609.151Z" stroke="black" stroke-width="1.1752" stroke-miterlimit="10"/>
<path d="M726.72 550.25L571.8 430.15C502.41 376.36 410.07 426.19 405.59 519.84L395.571 728.94C391.081 822.59 477.821 889.83 551.691 849.96L716.63 760.96C790.5 721.1 796.11 604.04 726.72 550.25Z" stroke="black" stroke-width="1.1752" stroke-miterlimit="10"/>
<path d="M726.93 486.14L550.42 395.44C471.37 354.82 391.41 427.09 406.49 525.53L440.17 745.33C455.25 843.77 554.07 894.55 618.04 836.73L760.87 707.63C824.83 649.82 805.98 526.77 726.93 486.14Z" stroke="black" stroke-width="1.1752" stroke-miterlimit="10"/>
<path d="M713.8 419.39L522.29 364.04C436.52 339.25 373.33 432.14 408.55 531.25L487.191 752.52C522.411 851.62 629.63 882.61 680.18 808.29L793.05 642.36C843.6 568.05 799.57 444.18 713.8 419.39Z" stroke="black" stroke-width="1.1752" stroke-miterlimit="10"/>
<path d="M687.08 352.83L488.25 337.6C399.2 330.78 356.71 441.42 411.76 536.75L534.691 749.61C589.751 844.94 701.06 853.47 735.06 764.96L810.96 567.34C844.95 478.82 776.13 359.65 687.08 352.83Z" stroke="black" stroke-width="1.1752" stroke-miterlimit="10"/>
<path d="M647.11 289.48L449.46 317.61C360.94 330.21 342.38 454.73 416.05 541.76L580.55 736.07C654.22 823.09 764.881 807.35 779.731 707.73L812.89 485.3C827.72 385.67 735.63 276.89 647.11 289.48Z" stroke="black" stroke-width="1.1752" stroke-miterlimit="10"/>
<path d="M594.84 232.4L407.35 305.39C323.38 338.08 331.11 471.76 421.27 546.03L622.57 711.84C712.73 786.1 817.69 745.24 811.5 638.29L797.69 399.5C791.5 292.54 678.81 199.72 594.84 232.4Z" stroke="black" stroke-width="1.1752" stroke-miterlimit="10"/>
<path d="M531.84 184.571L363.63 301.991C288.29 354.581 323.651 491.981 427.281 549.311L658.66 677.321C762.29 734.651 856.46 668.921 828.17 559.001L765.01 313.571C736.71 203.651 607.18 131.981 531.84 184.571Z" stroke="black" stroke-width="1.1752" stroke-miterlimit="10"/>
<path d="M460.281 148.731L320.151 308.121C257.391 379.511 320.551 514.661 433.831 551.401L686.77 633.431C800.05 670.171 878.501 580.941 827.981 472.811L715.17 231.391C664.64 123.271 523.041 77.3507 460.281 148.731Z" stroke="black" stroke-width="1.1752" stroke-miterlimit="10"/>
<path d="M382.83 127.261L278.9 324.111C232.35 412.271 322.23 538.951 440.68 552.121L705.14 581.541C823.59 594.711 881.77 484.511 809.87 383.171L649.33 156.901C577.43 55.5709 429.37 39.1008 382.83 127.261Z" stroke="black" stroke-width="1.1752" stroke-miterlimit="10"/>
<path d="M302.6 122.06L241.87 349.88C214.67 451.92 328.92 563.85 447.52 551.36L712.321 523.48C830.921 510.99 864.91 383.45 773.52 293.9L569.451 93.9601C478.051 4.41007 329.8 20.0202 302.6 122.06Z" stroke="black" stroke-width="1.1752" stroke-miterlimit="10"/>
<path d="M223.05 134.38L211.02 384.88C205.63 497.07 340.65 588.28 454.06 549.05L707.28 461.46C820.69 422.23 827.42 281.99 719.41 209.03L478.231 46.1103C370.201 -26.8397 228.44 22.1903 223.05 134.38Z" stroke="black" stroke-width="1.1752" stroke-miterlimit="10"/>
<path d="M147.8 164.8L188.111 428.13C206.161 546.07 357.201 611.11 459.981 545.21L689.451 398.06C792.221 332.16 769.66 184.73 648.83 132.7L379.04 16.5204C258.21 -35.5096 129.74 46.8704 147.8 164.8Z" stroke="black" stroke-width="1.1752" stroke-miterlimit="10"/>
<path d="M80.5191 213.11L174.7 478.21C216.88 596.94 378.139 631.22 464.969 539.91L658.83 336.04C745.66 244.73 692.93 96.3203 563.92 68.9003L275.879 7.67035C146.869 -19.7596 38.3391 94.3703 80.5191 213.11Z" stroke="black" stroke-width="1.1752" stroke-miterlimit="10"/>
<path d="M24.7496 278.251L171.99 533.281C237.93 647.501 402.8 647.501 468.74 533.281L615.98 278.251C681.92 164.031 599.489 21.2607 467.599 21.2607H173.12C41.2297 21.2507 -41.2004 164.031 24.7496 278.251Z" stroke="black" stroke-width="1.1752" stroke-miterlimit="10"/>
</svg>
