<svg width="1001" height="1032" viewBox="0 0 1001 1032" fill="none" xmlns="http://www.w3.org/2000/svg">
<path d="M729.765 660.256C795.974 555.154 746.913 405.235 620.185 325.402C493.456 245.57 337.05 266.055 270.84 371.157C204.631 476.26 253.692 626.179 380.42 706.012C507.149 785.844 663.556 765.359 729.765 660.256Z" stroke="black" stroke-width="1.1752" stroke-miterlimit="10"/>
<path d="M722.012 680.66C797.093 579.818 758.754 424.207 636.379 333.093C514.003 241.979 353.933 249.865 278.852 350.707C203.771 451.548 242.11 607.159 364.485 698.273C486.861 789.387 646.931 781.501 722.012 680.66Z" stroke="black" stroke-width="1.1752" stroke-miterlimit="10"/>
<path d="M711.641 700.573C795.524 604.51 768.856 443.972 652.078 342C535.3 240.028 372.632 235.238 288.749 331.301C204.867 427.363 231.534 587.902 348.313 689.873C465.091 791.845 627.759 796.635 711.641 700.573Z" stroke="black" stroke-width="1.1752" stroke-miterlimit="10"/>
<path d="M699.572 719.231C792.212 628.472 778.14 463.878 668.141 351.6C558.143 239.323 393.872 221.878 301.232 312.638C208.593 403.397 222.665 567.991 332.663 680.269C442.662 792.546 606.933 809.991 699.572 719.231Z" stroke="black" stroke-width="1.1752" stroke-miterlimit="10"/>
<path d="M685.51 736.263C786.85 651.367 786.237 483.747 684.139 361.872C582.042 239.998 417.123 210.02 315.782 294.916C214.442 379.811 215.055 547.432 317.153 669.306C419.25 791.181 584.169 821.158 685.51 736.263Z" stroke="black" stroke-width="1.1752" stroke-miterlimit="10"/>
<path d="M668.896 752.479C778.85 674.086 792.484 504.64 699.349 374.01C606.215 243.381 441.579 201.036 331.626 279.429C221.672 357.823 208.038 527.269 301.173 657.898C394.308 788.527 558.943 830.873 668.896 752.479Z" stroke="black" stroke-width="1.1752" stroke-miterlimit="10"/>
<path d="M651.189 766.564C769.667 695.325 798.219 525.325 714.962 386.859C631.704 248.393 468.165 193.894 349.687 265.133C231.208 336.372 202.656 506.372 285.914 644.838C369.171 783.305 532.71 837.803 651.189 766.564Z" stroke="black" stroke-width="1.1752" stroke-miterlimit="10"/>
<path d="M631.867 778.596C758.715 715.228 802.712 546.084 730.135 400.802C657.559 255.519 495.893 189.114 369.045 252.482C242.196 315.849 198.2 484.993 270.776 630.276C343.352 775.558 505.018 841.964 631.867 778.596Z" stroke="black" stroke-width="1.1752" stroke-miterlimit="10"/>
<path d="M611.323 789.057C746.335 734.341 806.165 567.548 744.957 416.514C683.748 265.481 524.679 187.4 389.666 242.115C254.654 296.831 194.824 463.625 256.032 614.658C317.241 765.692 476.31 843.773 611.323 789.057Z" stroke="black" stroke-width="1.1752" stroke-miterlimit="10"/>
<path d="M589.48 797.445C732.349 752.2 808.202 589.323 758.902 433.65C709.602 277.976 553.818 188.456 410.949 233.701C268.079 278.947 192.227 441.823 241.527 597.497C290.827 753.17 446.611 842.69 589.48 797.445Z" stroke="black" stroke-width="1.1752" stroke-miterlimit="10"/>
<path d="M567.508 804.293C717.857 769.38 809.764 611.99 772.787 452.753C735.81 293.516 583.951 192.732 433.602 227.645C283.253 262.559 191.346 419.948 228.324 579.185C265.301 738.422 417.159 839.206 567.508 804.293Z" stroke="black" stroke-width="1.1752" stroke-miterlimit="10"/>
<path d="M544.47 808.742C701.757 785.025 809.5 634.724 785.119 473.035C760.738 311.345 613.466 199.497 456.179 223.214C298.891 246.932 191.149 397.233 215.53 558.922C239.911 720.611 387.183 832.459 544.47 808.742Z" stroke="black" stroke-width="1.1752" stroke-miterlimit="10"/>
<path d="M521.648 811.133C685.228 799.474 808.411 657.793 796.785 494.682C785.159 331.57 643.126 208.794 479.546 220.454C315.966 232.113 192.783 373.794 204.409 536.905C216.036 700.017 358.068 822.793 521.648 811.133Z" stroke="black" stroke-width="1.1752" stroke-miterlimit="10"/>
<path d="M806.571 517.851C807.776 354.331 671.703 220.761 502.644 219.515C333.584 218.268 195.556 349.817 194.351 513.338C193.145 676.858 329.218 810.428 498.278 811.675C667.338 812.921 805.365 681.372 806.571 517.851Z" stroke="black" stroke-width="1.1752" stroke-miterlimit="10"/>
<path d="M814.877 542.907C828.913 379.92 699.587 235.676 526.019 220.728C352.451 205.781 200.368 325.791 186.331 488.778C172.295 651.765 301.621 796.009 475.189 810.956C648.757 825.904 800.841 705.894 814.877 542.907Z" stroke="black" stroke-width="1.1752" stroke-miterlimit="10"/>
<path d="M821.029 569.076C847.825 407.496 726.093 252.719 549.133 223.372C372.172 194.025 206.995 301.221 180.199 462.801C153.402 624.381 275.134 779.158 452.095 808.504C629.055 837.851 794.233 730.656 821.029 569.076Z" stroke="black" stroke-width="1.1752" stroke-miterlimit="10"/>
<path d="M824.93 596.093C864.381 436.731 751.176 271.601 572.08 227.265C392.984 182.93 215.817 276.177 176.367 435.539C136.916 594.901 250.121 760.03 429.217 804.366C608.313 848.702 785.48 755.455 824.93 596.093Z" stroke="black" stroke-width="1.1752" stroke-miterlimit="10"/>
<path d="M826.208 623.802C878.181 467.42 774.529 292.196 594.693 232.428C414.858 172.66 226.94 250.98 174.966 407.361C122.993 563.743 226.646 738.966 406.481 798.735C586.317 858.503 774.235 780.183 826.208 623.802Z" stroke="black" stroke-width="1.1752" stroke-miterlimit="10"/>
<path d="M824.858 652.265C889.229 499.58 796.27 314.614 617.228 239.131C438.187 163.648 240.862 226.232 176.491 378.916C112.12 531.6 205.079 716.566 384.121 792.049C563.162 867.532 760.487 804.949 824.858 652.265Z" stroke="black" stroke-width="1.1752" stroke-miterlimit="10"/>
<path d="M820.388 681.012C897.023 532.718 815.953 338.503 639.314 247.221C462.675 155.94 257.357 202.157 180.723 350.451C104.088 498.745 185.158 692.96 361.797 784.242C538.436 875.523 743.754 829.306 820.388 681.012Z" stroke="black" stroke-width="1.1752" stroke-miterlimit="10"/>
<path d="M812.798 709.234C901.574 565.993 833.64 363.168 661.063 256.211C488.487 149.254 276.62 178.668 187.844 321.909C99.0684 465.15 167.002 667.975 339.579 774.932C512.155 881.888 724.022 852.474 812.798 709.234Z" stroke="black" stroke-width="1.1752" stroke-miterlimit="10"/>
<path d="M802.302 737.345C903.129 599.839 849.643 389.215 682.837 266.903C516.031 144.591 299.071 156.908 198.244 294.414C97.4168 431.919 150.903 642.543 317.709 764.855C484.515 887.167 701.475 874.85 802.302 737.345Z" stroke="black" stroke-width="1.1752" stroke-miterlimit="10"/>
<path d="M788.879 764.163C901.68 633.064 863.925 415.623 704.552 278.495C545.179 141.367 324.538 136.479 211.738 267.578C98.9379 398.676 136.693 616.117 296.066 753.246C455.439 890.374 676.079 895.261 788.879 764.163Z" stroke="black" stroke-width="1.1752" stroke-miterlimit="10"/>
<path d="M772.728 789.741C897.427 665.78 876.666 442.715 726.357 291.511C576.049 140.306 353.11 118.221 228.411 242.182C103.712 366.143 124.472 589.208 274.781 740.412C425.09 891.617 648.028 913.702 772.728 789.741Z" stroke="black" stroke-width="1.1752" stroke-miterlimit="10"/>
<path d="M753.211 812.971C889.713 696.896 887.101 469.597 747.377 305.285C607.654 140.973 383.729 101.869 247.227 217.944C110.725 334.019 113.337 561.317 253.061 725.63C392.784 889.942 616.709 929.046 753.211 812.971Z" stroke="black" stroke-width="1.1752" stroke-miterlimit="10"/>
<path d="M731.872 835.023C880.111 727.687 896.771 497.718 769.084 321.372C641.397 145.027 417.714 89.0833 269.476 196.419C121.237 303.755 104.577 533.724 232.264 710.07C359.952 886.415 583.634 942.359 731.872 835.023Z" stroke="black" stroke-width="1.1752" stroke-miterlimit="10"/>
<path d="M707.565 854.442C867.38 756.739 904.214 525.866 789.835 338.772C675.456 151.679 453.178 79.213 293.362 176.915C133.547 274.618 96.7131 505.491 211.092 692.584C325.471 879.678 547.749 952.144 707.565 854.442Z" stroke="black" stroke-width="1.1752" stroke-miterlimit="10"/>
<path d="M681.412 871.594C852.622 784.5 910.388 554.612 810.436 358.125C710.484 161.638 490.663 72.9573 319.453 160.051C148.243 247.145 90.4773 477.032 190.429 673.519C290.381 870.006 510.202 958.687 681.412 871.594Z" stroke="black" stroke-width="1.1752" stroke-miterlimit="10"/>
<path d="M653.608 885.74C835.927 810.287 915.14 583.397 830.536 378.966C745.932 174.535 529.548 69.9785 347.229 145.432C164.91 220.885 85.6971 447.776 170.301 652.206C254.905 856.637 471.289 961.194 653.608 885.74Z" stroke="black" stroke-width="1.1752" stroke-miterlimit="10"/>
<path d="M624.472 897.504C817.517 834.807 918.486 613.022 849.994 402.133C781.501 191.244 569.482 71.1118 376.437 133.809C183.393 196.507 82.4233 418.292 150.916 629.181C219.409 840.069 431.427 960.202 624.472 897.504Z" stroke="black" stroke-width="1.1752" stroke-miterlimit="10"/>
<path d="M594.355 906.648C797.603 857.863 920.369 643.331 868.559 427.478C816.749 211.625 609.983 76.1894 406.734 124.974C203.485 173.759 80.7196 388.29 132.53 604.143C184.34 819.997 391.106 955.432 594.355 906.648Z" stroke="black" stroke-width="1.1752" stroke-miterlimit="10"/>
<path d="M563.358 913.062C776.111 879.373 920.426 674.259 885.696 454.928C850.965 235.597 650.34 85.104 437.588 118.793C224.835 152.482 80.5195 357.595 115.25 576.926C149.981 796.258 350.605 946.75 563.358 913.062Z" stroke="black" stroke-width="1.1752" stroke-miterlimit="10"/>
<path d="M500.44 917.82C722.503 917.82 902.52 737.803 902.52 515.74C902.52 293.677 722.503 113.66 500.44 113.66C278.377 113.66 98.3599 293.677 98.3599 515.74C98.3599 737.803 278.377 917.82 500.44 917.82Z" stroke="black" stroke-width="1.1752" stroke-miterlimit="10"/>
</svg>
