<svg width="903" height="700" viewBox="0 0 903 700" fill="none" xmlns="http://www.w3.org/2000/svg">
<path d="M286.78 625.19L412.7 670.52C440.36 680.48 478.73 665.88 506.64 634.79L559.15 576.29C585.88 546.52 596.88 508.39 586.51 481.52L505.05 270.6C492.23 237.42 512.19 188.47 550.56 158.98L573.13 141.64C628.12 99.3897 639.93 24.1798 594.63 4.76984C569.01 -6.21016 532.57 5.23978 504.08 33.2098L377.1 157.86C360 174.64 347.601 195.64 342.481 216.48L258.91 556.5C250.87 589.13 261.87 616.22 286.78 625.19Z" stroke="black" stroke-width="1.1752" stroke-miterlimit="10"/>
<path d="M272.71 621.88L396.081 674.79C423.181 686.41 462.27 673.59 491.76 643.4L547.26 586.59C575.51 557.68 588.5 519.41 579.54 491.48L509.231 272.2C498.171 237.7 520.66 188.89 560.52 160.89L583.97 144.42C641.09 104.3 656.82 28.2899 612.6 6.08992C587.59 -6.46008 550.6 3.24982 520.68 30.2398L387.35 150.48C369.4 166.67 355.92 187.4 349.71 208.36L248.46 550.38C238.74 583.22 248.3 611.41 272.71 621.88Z" stroke="black" stroke-width="1.1752" stroke-miterlimit="10"/>
<path d="M258.84 617.76L379.281 678.27C405.731 691.56 445.44 680.58 476.47 651.39L534.87 596.47C564.59 568.52 579.57 530.22 572.08 501.28L513.34 274.07C504.1 238.33 529.12 189.78 570.38 163.39L594.651 147.86C653.791 110.03 673.481 33.4097 630.481 8.42968C606.161 -5.70032 568.72 2.22963 537.42 28.1296L397.981 143.53C379.211 159.07 364.661 179.48 357.361 200.5L238.34 543.61C226.93 576.55 235.01 605.79 258.84 617.76Z" stroke="black" stroke-width="1.1752" stroke-miterlimit="10"/>
<path d="M245.2 612.83L362.3 680.92C388.02 695.87 428.25 686.81 460.77 658.72L521.96 605.87C553.11 578.97 570.06 540.75 564.1 510.86L517.33 276.2C509.97 239.28 537.5 191.15 580.09 166.46L605.14 151.93C666.18 116.54 689.85 39.5196 648.22 11.7596C624.68 -3.93038 586.86 2.13972 554.26 26.8597L408.97 137.01C389.41 151.84 373.81 171.86 365.43 192.9L228.62 536.18C215.5 569.13 222.03 599.36 245.2 612.83Z" stroke="black" stroke-width="1.1752" stroke-miterlimit="10"/>
<path d="M231.84 607.07L345.22 682.71C370.12 699.32 410.77 692.23 444.71 665.35L508.59 614.77C541.1 589.02 560.03 550.98 555.65 520.2L521.231 278.58C515.811 240.57 545.82 192.99 589.65 170.1L615.43 156.63C678.24 123.82 705.91 46.6101 665.78 16.1001C643.09 -1.14988 605.01 3.01999 571.16 26.47L420.31 130.96C400 145.03 383.37 164.6 373.9 185.59L219.31 528.09C204.46 560.95 209.41 592.1 231.84 607.07Z" stroke="black" stroke-width="1.1752" stroke-miterlimit="10"/>
<path d="M218.79 600.48L328.05 683.61C352.05 701.87 393.01 696.81 428.32 671.23L494.76 623.1C528.57 598.6 549.47 560.84 546.7 529.25L524.97 281.2C521.55 242.18 554 195.3 598.97 174.31L625.42 161.97C689.86 131.89 721.53 54.6897 683.06 21.4597C661.31 2.66965 623.06 4.88966 588.03 26.9697L431.91 125.39C410.89 138.64 393.26 157.69 382.7 178.58L210.4 519.33C193.87 552.03 197.18 584.04 218.79 600.48Z" stroke="black" stroke-width="1.1752" stroke-miterlimit="10"/>
<path d="M206.111 593.08L310.87 683.63C333.88 703.52 375.051 700.55 411.651 676.37L480.51 630.87C515.56 607.71 538.41 570.35 537.29 538.01L528.571 284.08C527.201 244.13 562.06 198.1 608.06 179.11L635.12 167.94C701.05 140.73 736.72 63.7498 700.04 27.8398C679.3 7.52978 640.99 7.74958 604.85 28.3796L443.8 120.33C422.12 132.71 403.52 151.18 391.88 171.9L201.981 509.93C183.761 542.38 185.391 575.17 206.111 593.08Z" stroke="black" stroke-width="1.1752" stroke-miterlimit="10"/>
<path d="M193.839 584.86L293.719 682.72C315.659 704.21 356.93 703.39 394.74 680.7L465.889 638.01C502.099 616.28 526.87 579.43 527.46 546.41L532.04 287.19C532.76 246.41 569.979 201.36 616.919 184.47L644.53 174.54C711.79 150.34 751.44 73.8 716.69 35.24C697.04 13.44 658.769 11.62 621.599 30.71L455.96 115.81C433.66 127.27 414.12 145.1 401.41 165.59L194.08 499.9C174.17 532 174.079 565.5 193.839 584.86Z" stroke="black" stroke-width="1.1752" stroke-miterlimit="10"/>
<path d="M182.01 575.82L276.63 680.88C297.41 703.95 338.671 705.32 377.621 684.22L450.911 644.52C488.211 624.31 514.881 588.08 517.191 554.47L535.331 290.57C538.181 249.05 577.71 205.14 625.47 190.43L653.56 181.78C722 160.71 765.601 84.8298 732.911 43.6798C714.431 20.4098 676.311 16.5099 638.191 33.9899L468.321 111.86C445.451 122.34 425.001 139.47 411.241 159.67L186.701 489.27C165.131 520.91 163.29 555.04 182.01 575.82Z" stroke="black" stroke-width="1.1752" stroke-miterlimit="10"/>
<path d="M170.67 565.99L259.67 678.1C279.22 702.72 320.34 706.32 360.34 686.9L435.599 650.36C473.909 631.76 502.43 596.27 506.5 562.14L538.429 294.19C543.449 252.04 585.229 209.4 633.679 196.96L662.179 189.65C731.629 171.83 779.14 96.84 748.65 53.17C731.41 28.47 693.55 22.4601 654.57 38.2301L480.86 108.51C457.47 117.97 436.16 134.33 421.36 154.18L179.88 478.05C156.69 509.12 153.06 543.81 170.67 565.99Z" stroke="black" stroke-width="1.1752" stroke-miterlimit="10"/>
<path d="M159.86 555.359L242.87 674.349C261.1 700.479 301.98 706.339 342.94 688.689L420.01 655.469C459.24 638.559 489.579 603.919 495.429 569.359L541.34 298.019C548.56 255.329 592.51 214.109 641.55 204.029L670.4 198.1C740.68 183.65 792.049 109.769 763.889 63.6393C747.969 37.5493 710.469 29.4093 670.719 43.3993L493.57 105.739C469.72 114.129 447.58 129.67 431.76 149.1L173.66 466.229C148.88 496.669 143.44 531.819 159.86 555.359Z" stroke="black" stroke-width="1.1752" stroke-miterlimit="10"/>
<path d="M149.62 543.95L226.29 669.64C243.13 697.24 283.65 705.4 325.48 689.6L404.19 659.87C444.25 644.74 476.36 611.05 484.01 576.15L544.059 302.1C553.509 258.99 599.55 219.33 649.05 211.68L678.17 207.18C749.11 196.21 804.28 123.67 778.57 75.1596C764.03 47.7296 727.01 37.4198 686.58 49.5598L506.41 103.62C482.15 110.9 459.23 125.54 442.41 144.5L168.059 453.88C141.729 483.56 134.46 519.08 149.62 543.95Z" stroke="black" stroke-width="1.1752" stroke-miterlimit="10"/>
<path d="M140 531.78L209.98 663.95C225.35 692.98 265.39 703.45 307.99 689.58L388.15 663.49C428.95 650.21 462.78 617.6 472.24 582.44L546.549 306.39C558.239 262.96 606.299 225.01 656.129 219.86L685.44 216.83C756.86 209.44 815.75 138.47 792.61 87.6595C779.53 58.9295 743.099 46.4495 702.089 56.6595L519.339 102.129C494.729 108.249 471.08 121.95 453.29 140.37L163.129 440.98C135.269 469.81 126.15 505.63 140 531.78Z" stroke="black" stroke-width="1.1752" stroke-miterlimit="10"/>
<path d="M131.02 518.86L193.99 657.279C207.82 687.679 247.26 700.489 290.52 688.639L371.93 666.33C413.37 654.98 448.86 623.549 460.15 588.229L548.8 310.899C562.75 267.269 612.73 231.16 662.76 228.57L692.19 227.05C763.9 223.34 826.42 154.159 805.98 101.149C794.42 71.1794 758.69 56.5194 717.21 64.7194L532.33 101.29C507.44 106.21 483.09 118.909 464.37 136.729L158.87 427.549C129.54 455.459 118.56 491.47 131.02 518.86Z" stroke="black" stroke-width="1.1752" stroke-miterlimit="10"/>
<path d="M122.73 505.21L178.37 649.62C190.59 681.34 229.3 696.5 273.13 686.73L355.599 668.34C397.569 658.98 434.66 628.86 447.79 593.47L550.83 315.6C567.04 271.89 618.84 237.76 668.94 237.79L698.41 237.81C770.21 237.85 836.27 170.7 818.63 115.59C808.65 84.4296 773.74 67.5795 731.88 73.7295L545.34 101.12C520.22 104.81 495.25 116.45 475.62 133.61L155.32 413.649C124.58 440.539 111.73 476.64 122.73 505.21Z" stroke="black" stroke-width="1.1752" stroke-miterlimit="10"/>
<path d="M115.17 490.87L163.17 641C173.71 673.97 211.58 691.49 255.85 683.87L339.17 669.54C381.58 662.25 420.19 633.53 435.15 598.16L552.6 320.51C571.08 276.83 624.59 244.83 674.62 247.53L704.05 249.12C775.75 253 845.23 188.1 830.5 131C822.17 98.7098 788.189 79.6797 746.059 83.7097L558.34 101.66C533.06 104.08 507.52 114.6 487.01 131.04L152.49 399.3C120.4 425.06 105.67 461.17 115.17 490.87Z" stroke="black" stroke-width="1.1752" stroke-miterlimit="10"/>
<path d="M108.371 475.85L148.451 631.4C157.251 665.56 194.15 685.43 238.76 680.04L322.71 669.89C365.44 664.72 405.5 637.52 422.29 602.28L554.111 325.63C574.851 282.11 629.961 252.35 679.781 257.78L709.09 260.97C780.49 268.75 853.28 206.32 841.55 147.36C834.92 114.01 801.981 92.8099 759.701 94.6599L571.29 102.93C545.92 104.04 519.86 113.4 498.52 129.06L150.42 384.55C117.03 409.07 100.441 445.07 108.371 475.85Z" stroke="black" stroke-width="1.1752" stroke-miterlimit="10"/>
<path d="M102.361 460.18L134.241 620.83C141.241 656.11 177.05 678.33 221.89 675.21L306.26 669.35C349.2 666.37 390.63 640.79 409.25 605.78L555.361 330.91C578.351 287.67 634.94 260.29 684.41 268.48L713.51 273.3C784.41 285.04 860.36 225.32 851.74 164.6C846.86 130.27 815.08 106.9 772.76 106.53L584.18 104.89C558.79 104.67 532.271 112.82 510.151 127.63L149.16 369.39C114.51 392.59 96.0606 428.39 102.361 460.18Z" stroke="black" stroke-width="1.1752" stroke-miterlimit="10"/>
<path d="M97.1904 443.89L120.62 609.29C125.77 645.62 160.36 670.17 205.3 669.39L289.86 667.92C332.9 667.17 375.61 643.32 396.03 608.64L556.33 336.35C581.55 293.51 639.5 268.64 688.47 279.63L717.28 286.1C787.46 301.85 866.44 245.05 861.01 182.71C857.94 147.46 827.42 121.95 785.18 119.32L596.94 107.58C571.6 106 544.69 112.88 521.82 126.8L148.67 353.88C112.85 375.66 92.5504 411.16 97.1904 443.89Z" stroke="black" stroke-width="1.1752" stroke-miterlimit="10"/>
<path d="M92.8697 427.01L107.62 596.81C110.86 634.1 144.12 660.97 189.04 662.57L273.559 665.59C316.579 667.13 360.48 645.1 382.69 610.85L557.019 341.939C584.449 299.629 643.62 277.38 691.95 291.2L720.379 299.33C789.639 319.13 871.48 265.459 869.32 201.649C868.1 165.569 838.96 137.94 796.91 133L609.549 110.98C584.319 108.02 557.09 113.59 533.53 126.55L149.009 338.02C112.079 358.33 89.9497 393.42 92.8697 427.01Z" stroke="black" stroke-width="1.1752" stroke-miterlimit="10"/>
<path d="M89.4401 409.58L95.2799 583.39C96.5599 621.56 128.369 650.72 173.139 654.75L257.389 662.34C300.269 666.2 345.27 646.11 369.23 612.39L557.4 347.68C587 306.04 647.259 286.52 694.799 303.18L722.759 312.98C790.889 336.86 875.43 286.54 876.61 221.4C877.28 184.57 849.62 154.86 807.9 147.58L621.95 115.14C596.91 110.77 569.43 115 545.21 126.95L150.15 321.9C112.22 340.62 88.2901 375.2 89.4401 409.58Z" stroke="black" stroke-width="1.1752" stroke-miterlimit="10"/>
<path d="M86.9296 391.64L83.66 569.07C82.94 608.04 113.18 639.45 157.68 645.95L241.41 658.18C284.03 664.41 330.01 646.33 355.71 613.25L557.47 353.56C589.21 312.7 650.41 296.03 697.01 315.55L724.42 327.03C791.21 355 878.259 308.24 882.849 241.93C885.439 204.43 859.38 172.68 818.09 163.04L634.09 120.05C609.32 114.26 581.64 117.11 556.84 127.99L152.12 305.55C113.29 322.59 87.5696 356.54 86.9296 391.64Z" stroke="black" stroke-width="1.1752" stroke-miterlimit="10"/>
<path d="M85.3605 373.23L72.8098 553.86C70.0498 593.53 98.6102 627.15 142.71 636.15L225.691 653.09C267.921 661.71 314.791 645.75 342.191 613.41L557.27 359.55C591.11 319.61 653.091 305.89 698.611 328.27L725.39 341.43C790.62 373.5 880.01 330.5 888.06 263.17C892.61 225.1 868.25 191.36 827.52 179.32L646.02 125.69C621.58 118.47 593.8 119.89 568.46 129.65L155 288.97C115.3 304.27 87.8405 337.49 85.3605 373.23Z" stroke="black" stroke-width="1.1752" stroke-miterlimit="10"/>
<path d="M84.7501 354.379L62.7599 537.769C57.9299 578.049 84.6899 613.83 128.26 625.36L210.24 647.049C251.97 658.089 299.61 644.33 328.66 612.84L556.731 365.639C592.611 326.749 655.23 316.08 699.51 341.31L725.56 356.149C789.03 392.309 880.53 353.27 892.1 285.09C898.64 246.54 876.07 210.849 836.03 196.409L657.59 132.07C633.56 123.41 605.75 123.369 579.93 131.969L158.7 272.239C118.26 285.699 89.1001 318.089 84.7501 354.379Z" stroke="black" stroke-width="1.1752" stroke-miterlimit="10"/>
<path d="M85.1401 335.14L53.5903 520.84C46.6603 561.63 71.5106 599.52 114.411 613.59L195.14 640.07C236.23 653.55 284.53 642.07 315.18 611.53L555.871 371.82C593.741 334.11 656.831 326.58 699.731 354.66L724.97 371.18C786.46 411.42 879.88 376.52 895 307.66C903.55 268.73 882.881 231.16 843.651 214.3L668.821 139.2C645.281 129.09 617.5 127.57 591.27 134.95L163.27 255.39C122.19 266.95 91.3801 298.4 85.1401 335.14Z" stroke="black" stroke-width="1.1752" stroke-miterlimit="10"/>
<path d="M86.5302 315.55L45.2997 503.1C36.2397 544.29 59.0796 584.23 101.18 600.86L180.42 632.16C220.75 648.09 269.58 638.97 301.79 609.49L554.7 378.07C594.49 341.66 657.89 337.36 699.26 368.26L723.6 386.44C782.9 430.73 878.02 400.15 896.72 330.8C907.29 291.58 888.62 252.19 850.33 232.93L679.67 147.07C656.69 135.51 629.03 132.47 602.45 138.59L168.74 238.46C127.1 248.04 94.6902 278.45 86.5302 315.55Z" stroke="black" stroke-width="1.1752" stroke-miterlimit="10"/>
<path d="M88.94 295.67L37.9498 484.58C26.7498 526.07 47.4593 567.99 88.6393 587.19L166.13 623.31C205.569 641.7 254.809 635.01 288.519 606.69L553.19 384.38C594.83 349.41 658.37 348.41 698.07 382.11L721.42 401.93C778.32 450.23 874.909 424.15 897.219 354.47C909.829 315.07 893.249 273.94 856.009 252.26L690.08 155.65C667.74 142.64 640.27 138.07 613.41 142.89L175.059 221.5C132.989 229.04 99.03 258.29 88.94 295.67Z" stroke="black" stroke-width="1.1752" stroke-miterlimit="10"/>
<path d="M92.3893 275.53L31.5895 465.31C18.2395 506.99 36.7195 550.81 76.8395 572.57L152.33 613.52C190.75 634.36 240.28 630.18 275.42 603.12L551.36 390.72C594.77 357.3 658.28 359.68 696.16 396.14L718.44 417.59C772.73 469.84 870.56 448.43 896.48 378.62C911.14 339.15 896.729 296.34 860.679 272.26L700.03 164.96C678.4 150.51 651.21 144.39 624.13 147.86L182.269 204.55C139.869 209.99 104.419 237.99 92.3893 275.53Z" stroke="black" stroke-width="1.1752" stroke-miterlimit="10"/>
<path d="M96.8901 255.2L26.2407 445.34C10.7207 487.1 26.89 532.74 65.81 557.06L139.06 602.82C176.34 626.11 226.011 624.49 262.531 598.8L549.21 397.1C594.31 365.37 657.6 371.18 693.52 410.36L714.651 433.4C766.131 489.54 864.951 472.95 894.481 403.2C911.181 363.76 899.03 319.37 864.29 292.91L709.47 174.99C688.63 159.11 661.801 151.42 634.571 153.51L190.35 187.68C147.73 190.95 110.87 217.58 96.8901 255.2Z" stroke="black" stroke-width="1.1752" stroke-miterlimit="10"/>
<path d="M102.451 234.72L21.9408 424.7C4.26075 466.43 18.0207 513.8 55.6107 540.66L126.361 591.2C162.371 616.92 212.06 617.93 249.87 593.7L546.72 403.47C593.42 373.54 656.32 382.85 690.14 424.69L710.04 449.3C758.51 509.26 858.06 497.63 891.21 428.13C909.95 388.83 900.14 342.95 866.83 314.13L718.401 185.7C698.421 168.41 672.021 159.14 644.731 159.82L199.33 170.92C156.58 171.97 118.381 197.14 102.451 234.72Z" stroke="black" stroke-width="1.1752" stroke-miterlimit="10"/>
<path d="M109.07 214.15L18.7303 403.44C-1.10974 445.01 10.1498 494.02 46.2898 523.4L114.3 578.68C148.91 606.81 198.48 610.49 237.51 587.82L543.9 409.83C592.1 381.83 654.429 394.67 686.019 439.11L704.599 465.25C749.869 528.94 849.89 522.4 886.63 453.35C907.4 414.3 900.01 367.03 868.25 335.88L726.74 197.08C707.69 178.39 681.82 167.53 654.53 166.77L209.16 154.29C166.42 153.1 126.94 176.7 109.07 214.15Z" stroke="black" stroke-width="1.1752" stroke-miterlimit="10"/>
<path d="M116.76 193.54L16.6398 381.61C-5.35016 422.92 3.33007 473.46 37.8801 505.32L102.901 565.28C135.991 595.8 185.3 602.19 225.47 581.17L540.76 416.16C590.36 390.2 651.931 406.61 681.151 453.58L698.34 481.21C740.21 548.53 840.44 547.21 880.74 478.8C903.53 440.12 898.62 391.55 868.54 358.12L734.49 209.12C716.44 189.06 691.18 176.61 663.96 174.38L219.85 137.88C177.22 134.39 136.57 156.34 116.76 193.54Z" stroke="black" stroke-width="1.1752" stroke-miterlimit="10"/>
<path d="M125.519 172.96L15.6903 359.26C-8.42971 400.18 -2.41046 452.14 30.4295 486.46L92.2196 551.03C123.67 583.9 172.58 593.04 213.78 573.77L537.28 422.46C588.17 398.66 648.799 418.67 675.519 468.09L691.24 497.16C729.53 567.99 829.689 572 873.519 504.45C898.299 466.25 895.94 416.5 867.65 380.82L741.58 221.83C724.61 200.42 700.03 186.39 672.96 182.66L231.37 121.75C188.99 115.91 147.249 136.1 125.519 172.96Z" stroke="black" stroke-width="1.1752" stroke-miterlimit="10"/>
</svg>
