<svg width="767" height="889" viewBox="0 0 767 889" fill="none" xmlns="http://www.w3.org/2000/svg">
<path d="M371.6 351.561L301.58 400.93L313.18 493.521L394.81 536.73L464.84 487.351L453.24 394.76L371.6 351.561Z" stroke="black" stroke-width="1.1752" stroke-miterlimit="10" stroke-linecap="round"/>
<path d="M467.86 480.25L457.45 387.85L372.8 351.74L298.55 408.03L308.96 500.44L393.62 536.54L467.86 480.25Z" stroke="black" stroke-width="1.1752" stroke-miterlimit="10" stroke-linecap="round"/>
<path d="M313.67 506.96L397.62 544.12L467.16 481.3L452.75 381.32L368.79 344.16L299.25 406.98L313.67 506.96Z" stroke="black" stroke-width="1.1752" stroke-miterlimit="10" stroke-linecap="round"/>
<path d="M361.05 345.35L290.93 406.96L313.08 505.75L405.36 542.94L475.49 481.33L453.33 382.53L361.05 345.35Z" stroke="black" stroke-width="1.1752" stroke-miterlimit="10" stroke-linecap="round"/>
<path d="M478 473.29L457.15 374.55L362.36 345.4L288.42 414.99L309.27 513.73L404.06 542.88L478 473.29Z" stroke="black" stroke-width="1.1752" stroke-miterlimit="10" stroke-linecap="round"/>
<path d="M315.01 520.24L409.16 550.61L477.36 474.52L451.4 368.05L357.26 337.67L289.06 413.77L315.01 520.24Z" stroke="black" stroke-width="1.1752" stroke-miterlimit="10" stroke-linecap="round"/>
<path d="M349.06 339.86L280.11 414.72L314.26 519L417.36 548.42L486.31 473.56L452.16 369.29L349.06 339.86Z" stroke="black" stroke-width="1.1752" stroke-miterlimit="10" stroke-linecap="round"/>
<path d="M488.16 464.581L455.42 360.21L350.47 339.771L278.25 423.7L310.99 528.071L415.95 548.51L488.16 464.581Z" stroke="black" stroke-width="1.1752" stroke-miterlimit="10" stroke-linecap="round"/>
<path d="M317.85 534.44L422.24 556.28L487.6 465.98L448.57 353.84L344.18 332.01L278.81 422.3L317.85 534.44Z" stroke="black" stroke-width="1.1752" stroke-miterlimit="10" stroke-linecap="round"/>
<path d="M335.59 335.33L269.29 424.38L316.91 533.19L430.82 552.95L497.13 463.9L449.51 355.1L335.59 335.33Z" stroke="black" stroke-width="1.1752" stroke-miterlimit="10" stroke-linecap="round"/>
<path d="M498.18 453.97L452.07 344.9L337.1 335.07L268.23 434.32L314.35 543.39L429.32 553.21L498.18 453.97Z" stroke="black" stroke-width="1.1752" stroke-miterlimit="10" stroke-linecap="round"/>
<path d="M322.38 549.47L436.9 560.88L497.73 455.54L444.04 338.81L329.52 327.41L268.69 432.74L322.38 549.47Z" stroke="black" stroke-width="1.1752" stroke-miterlimit="10" stroke-linecap="round"/>
<path d="M320.64 332.01L258.67 436.1L321.24 548.23L445.78 556.27L507.75 452.18L445.18 340.06L320.64 332.01Z" stroke="black" stroke-width="1.1752" stroke-miterlimit="10" stroke-linecap="round"/>
<path d="M507.85 441.31L446.87 328.72L322.23 331.55L258.57 446.97L319.55 559.56L444.19 556.73L507.85 441.31Z" stroke="black" stroke-width="1.1752" stroke-miterlimit="10" stroke-linecap="round"/>
<path d="M328.82 565.2L453.13 564.13L507.52 443.07L437.59 323.08L313.28 324.15L258.9 445.21L328.82 565.2Z" stroke="black" stroke-width="1.1752" stroke-miterlimit="10" stroke-linecap="round"/>
<path d="M304.22 330.17L248.48 450.02L327.46 563.99L462.2 558.11L517.94 438.26L438.95 324.29L304.22 330.17Z" stroke="black" stroke-width="1.1752" stroke-miterlimit="10" stroke-linecap="round"/>
<path d="M516.91 426.49L439.58 311.84L305.88 329.48L249.5 461.79L326.84 576.45L460.54 558.8L516.91 426.49Z" stroke="black" stroke-width="1.1752" stroke-miterlimit="10" stroke-linecap="round"/>
<path d="M337.4 581.47L470.93 565.76L516.74 428.43L429.02 306.82L295.49 322.52L249.67 459.85L337.4 581.47Z" stroke="black" stroke-width="1.1752" stroke-miterlimit="10" stroke-linecap="round"/>
<path d="M286.37 330.1L238.97 466.27L335.81 580.31L480.05 558.19L527.45 422.01L430.61 307.97L286.37 330.1Z" stroke="black" stroke-width="1.1752" stroke-miterlimit="10" stroke-linecap="round"/>
<path d="M525.11 409.4L429.98 294.42L288.08 329.16L241.31 478.88L336.43 593.86L478.33 559.12L525.11 409.4Z" stroke="black" stroke-width="1.1752" stroke-miterlimit="10" stroke-linecap="round"/>
<path d="M348.31 598.061L490.23 565.43L525.13 411.521L418.1 290.23L276.18 322.85L241.29 476.76L348.31 598.061Z" stroke="black" stroke-width="1.1752" stroke-miterlimit="10" stroke-linecap="round"/>
<path d="M267.17 332.11L230.45 484.96L346.49 596.99L499.24 556.17L535.97 403.32L419.93 291.29L267.17 332.11Z" stroke="black" stroke-width="1.1752" stroke-miterlimit="10" stroke-linecap="round"/>
<path d="M532.13 389.95L417.84 276.71L268.92 330.9L234.28 498.33L348.57 611.58L497.5 557.39L532.13 389.95Z" stroke="black" stroke-width="1.1752" stroke-miterlimit="10" stroke-linecap="round"/>
<path d="M361.78 614.72L510.95 562.821L532.38 392.24L404.63 273.561L255.46 325.46L234.04 496.041L361.78 614.72Z" stroke="black" stroke-width="1.1752" stroke-miterlimit="10" stroke-linecap="round"/>
<path d="M246.75 336.53L223.25 506.18L359.71 613.79L519.67 551.75L543.17 382.1L406.71 274.49L246.75 336.53Z" stroke="black" stroke-width="1.1752" stroke-miterlimit="10" stroke-linecap="round"/>
<path d="M537.65 368.09L402.94 258.96L248.49 335.02L228.76 520.19L363.48 629.32L517.92 553.27L537.65 368.09Z" stroke="black" stroke-width="1.1752" stroke-miterlimit="10" stroke-linecap="round"/>
<path d="M378.01 631.18L532.96 557.57L538.16 370.54L388.41 257.11L233.46 330.71L228.26 517.74L378.01 631.18Z" stroke="black" stroke-width="1.1752" stroke-miterlimit="10" stroke-linecap="round"/>
<path d="M225.25 343.71L217.72 529.97L375.68 630.41L541.17 544.57L548.7 358.31L390.74 257.87L225.25 343.71Z" stroke="black" stroke-width="1.1752" stroke-miterlimit="10" stroke-linecap="round"/>
<path d="M541.3 343.791L385.06 241.521L226.97 341.86L225.11 544.49L381.36 646.771L539.45 546.42L541.3 343.791Z" stroke="black" stroke-width="1.1752" stroke-miterlimit="10" stroke-linecap="round"/>
<path d="M397.17 647.08L556.06 549.32L542.1 346.38L369.24 241.21L210.35 338.96L224.32 541.9L397.17 647.08Z" stroke="black" stroke-width="1.1752" stroke-miterlimit="10" stroke-linecap="round"/>
<path d="M202.88 353.99L214.26 556.361L394.59 646.521L563.53 534.301L552.16 331.921L371.83 241.771L202.88 353.99Z" stroke="black" stroke-width="1.1752" stroke-miterlimit="10" stroke-linecap="round"/>
<path d="M542.68 317.08L364.01 224.73L204.54 351.791L223.73 571.2L402.4 663.551L561.88 536.49L542.68 317.08Z" stroke="black" stroke-width="1.1752" stroke-miterlimit="10" stroke-linecap="round"/>
<path d="M419.44 662.03L580.04 537.68L543.81 319.79L346.98 226.25L186.38 350.6L222.61 568.49L419.44 662.03Z" stroke="black" stroke-width="1.1752" stroke-miterlimit="10" stroke-linecap="round"/>
<path d="M179.91 367.72L213.31 585.31L416.6 661.73L586.5 520.56L553.11 302.97L349.82 226.55L179.91 367.72Z" stroke="black" stroke-width="1.1752" stroke-miterlimit="10" stroke-linecap="round"/>
<path d="M541.38 288.03L339.63 209.04L181.46 365.15L225.04 600.25L426.78 679.24L584.95 523.13L541.38 288.03Z" stroke="black" stroke-width="1.1752" stroke-miterlimit="10" stroke-linecap="round"/>
<path d="M444.94 675.6L604.6 522.29L542.87 290.83L321.48 212.68L161.81 365.99L223.54 597.45L444.94 675.6Z" stroke="black" stroke-width="1.1752" stroke-miterlimit="10" stroke-linecap="round"/>
<path d="M156.66 385.27L215.3 616.74L441.86 675.61L609.76 503.01L551.11 271.54L324.56 212.67L156.66 385.27Z" stroke="black" stroke-width="1.1752" stroke-miterlimit="10" stroke-linecap="round"/>
<path d="M536.94 256.75L311.78 194.92L158.05 382.31L229.48 631.53L454.64 693.36L608.36 505.97L536.94 256.75Z" stroke="black" stroke-width="1.1752" stroke-miterlimit="10" stroke-linecap="round"/>
<path d="M473.77 687.301L629.4 502.771L538.84 259.61L292.64 200.98L137.02 385.521L227.58 628.68L473.77 687.301Z" stroke="black" stroke-width="1.1752" stroke-miterlimit="10" stroke-linecap="round"/>
<path d="M133.49 406.98L220.74 650.5L470.46 687.67L632.93 481.31L545.68 237.78L295.95 200.61L133.49 406.98Z" stroke="black" stroke-width="1.1752" stroke-miterlimit="10" stroke-linecap="round"/>
<path d="M528.89 223.44L280.36 182.91L134.68 403.61L237.53 664.84L486.06 705.37L631.74 484.67L528.89 223.44Z" stroke="black" stroke-width="1.1752" stroke-miterlimit="10" stroke-linecap="round"/>
<path d="M506 696.58L654.02 478.74L531.23 226.3L260.42 191.7L112.4 409.54L235.19 661.98L506 696.58Z" stroke="black" stroke-width="1.1752" stroke-miterlimit="10" stroke-linecap="round"/>
<path d="M110.84 433.17L230.11 686.39L502.48 697.36L655.57 455.11L536.3 201.89L263.94 190.92L110.84 433.17Z" stroke="black" stroke-width="1.1752" stroke-miterlimit="10" stroke-linecap="round"/>
<path d="M516.76 188.35L245.33 173.59L111.78 429.39L249.66 699.94L521.09 714.69L654.64 458.9L516.76 188.35Z" stroke="black" stroke-width="1.1752" stroke-miterlimit="10" stroke-linecap="round"/>
<path d="M541.61 702.841L677.98 449.871L519.57 191.171L224.8 185.44L88.4399 438.41L246.84 697.111L541.61 702.841Z" stroke="black" stroke-width="1.1752" stroke-miterlimit="10" stroke-linecap="round"/>
<path d="M89.24 464.15L243.94 724.12L537.91 704.1L677.18 424.13L522.48 164.17L228.51 184.18L89.24 464.15Z" stroke="black" stroke-width="1.1752" stroke-miterlimit="10" stroke-linecap="round"/>
<path d="M500.04 151.8L206.68 167.61L89.85 459.95L266.37 736.48L559.73 720.67L676.57 428.33L500.04 151.8Z" stroke="black" stroke-width="1.1752" stroke-miterlimit="10" stroke-linecap="round"/>
<path d="M580.56 705.45L700.72 415.84L503.37 154.53L185.86 182.83L65.7 472.45L263.05 733.76L580.56 705.45Z" stroke="black" stroke-width="1.1752" stroke-miterlimit="10" stroke-linecap="round"/>
<path d="M69.25 500.2L262.75 763.311L576.71 707.25L697.16 388.09L503.66 124.98L189.71 181.031L69.25 500.2Z" stroke="black" stroke-width="1.1752" stroke-miterlimit="10" stroke-linecap="round"/>
<path d="M478.26 114.23L164.51 165.671L69.47 495.581L288.16 774.061L601.9 722.611L696.95 392.7L478.26 114.23Z" stroke="black" stroke-width="1.1752" stroke-miterlimit="10" stroke-linecap="round"/>
<path d="M622.7 703.71L721.6 376.36L482.11 116.79L143.72 184.57L44.8101 511.92L284.3 771.5L622.7 703.71Z" stroke="black" stroke-width="1.1752" stroke-miterlimit="10" stroke-linecap="round"/>
<path d="M51.54 541.53L287.07 803.5L618.75 706.11L714.88 346.75L479.34 84.79L147.67 182.17L51.54 541.53Z" stroke="black" stroke-width="1.1752" stroke-miterlimit="10" stroke-linecap="round"/>
<path d="M450.9 76.1299L118.98 168.5L51.28 536.51L315.52 812.15L647.44 719.78L715.13 351.77L450.9 76.1299Z" stroke="black" stroke-width="1.1752" stroke-miterlimit="10" stroke-linecap="round"/>
<path d="M667.82 696.9L739.93 331.21L455.32 78.4502L98.59 191.38L26.48 557.07L311.1 809.84L667.82 696.9Z" stroke="black" stroke-width="1.1752" stroke-miterlimit="10" stroke-linecap="round"/>
<path d="M36.8101 588.31L317.42 844.13L663.83 699.96L729.61 299.97L448.99 44.1504L102.59 188.33L36.8101 588.31Z" stroke="black" stroke-width="1.1752" stroke-miterlimit="10" stroke-linecap="round"/>
<path d="M417.51 38.1201L70.3101 176.9L36.01 582.92L348.91 850.16L696.1 711.39L730.41 305.37L417.51 38.1201Z" stroke="black" stroke-width="1.1752" stroke-miterlimit="10" stroke-linecap="round"/>
<path d="M715.63 684.25L754.92 280.22L422.5 40.1104L50.79 204.03L11.5 608.06L343.92 848.17L715.63 684.25Z" stroke="black" stroke-width="1.1752" stroke-miterlimit="10" stroke-linecap="round"/>
<path d="M25.86 640.65L354.3 884.53L711.65 688.02L740.55 247.64L412.11 3.75L54.77 200.26L25.86 640.65Z" stroke="black" stroke-width="1.1752" stroke-miterlimit="10" stroke-linecap="round"/>
<path d="M377.64 0.910156L18.87 191.67L24.4399 634.9L388.78 887.37L747.55 696.61L741.97 253.38L377.64 0.910156Z" stroke="black" stroke-width="1.1752" stroke-miterlimit="10" stroke-linecap="round"/>
<path d="M765.7 664.97V223.311L383.21 2.48047L0.719971 223.311V664.97L383.21 885.801L765.7 664.97Z" stroke="black" stroke-width="1.1752" stroke-miterlimit="10" stroke-linecap="round"/>
</svg>
